<svg aria-hidden="true" style="width:0;height:0;position:absolute;overflow:hidden" xmlns="http://www.w3.org/2000/svg"><defs><symbol id="icon-arrow-down" viewBox="0 0 32 32"><path style="fill:var(--color1,#000)" d="M0 16c0 8.837 7.163 16 16 16s16-7.163 16-16S24.837 0 16 0 0 7.163 0 16z"/><path fill="#fff" style="fill:var(--color2,#fff)" d="M15.787 19.423a.727.727 0 0 1-1.028 0l-4.628-4.628a.727.727 0 1 1 1.028-1.028l4.114 4.114 4.114-4.114a.728.728 0 0 1 1.029 1.028l-4.628 4.628zM16 18.182v.727h-1.455v-.727H16z"/></symbol><symbol id="icon-arrow-left" viewBox="0 0 32 32"><path fill="none" stroke="#6f777d" style="stroke:var(--color3,#6f777d)" stroke-width="1.454" d="M16 .727C7.565.727.727 7.565.727 16S7.565 31.273 16 31.273c8.435 0 15.273-6.838 15.273-15.273S24.435.727 16 .727z"/><path fill="#6f777d" style="fill:var(--color3,#6f777d)" d="M12.577 15.787a.727.727 0 0 1 0-1.028l4.628-4.628a.728.728 0 0 1 1.029 1.028l-4.114 4.114 4.114 4.114a.728.728 0 0 1-1.029 1.029l-4.628-4.628zm1.241.213h-.727v-1.455h.727V16z"/></symbol><symbol id="icon-arrow-right" viewBox="0 0 32 32"><path fill="#6f777d" style="fill:var(--color3,#6f777d)" d="M16 0c8.837 0 16 7.163 16 16s-7.163 16-16 16S0 24.837 0 16 7.163 0 16 0z"/><path fill="#fff" style="fill:var(--color2,#fff)" d="M19.423 15.787a.727.727 0 0 0 0-1.028l-4.628-4.628a.727.727 0 1 0-1.028 1.028l4.114 4.114-4.114 4.114a.728.728 0 0 0 1.028 1.029l4.628-4.628zM18.182 16h.727v-1.455h-.727V16z"/></symbol><symbol id="icon-arrow-up" viewBox="0 0 32 32"><path fill="#6f777d" style="fill:var(--color3,#6f777d)" d="M32 16c0-8.837-7.163-16-16-16S0 7.163 0 16s7.163 16 16 16 16-7.163 16-16z"/><path fill="#fff" style="fill:var(--color2,#fff)" d="M16.213 12.577a.728.728 0 0 1 1.029 0l4.628 4.628a.728.728 0 0 1-1.029 1.029l-4.114-4.114-4.114 4.114a.727.727 0 1 1-1.028-1.029l4.628-4.628zM16 13.818v-.727h1.455v.727H16z"/></symbol><symbol id="icon-carbon-phone" viewBox="0 0 32 32"><path fill="#fff" style="fill:var(--color2,#fff)" d="M24.206 29.333h-.139C7.95 28.348 5.662 13.894 5.342 9.482c-.026-.343.012-.688.112-1.015s.26-.63.47-.892c.21-.262.467-.476.756-.632s.603-.25.926-.276h4.519c.329 0 .65.104.922.3s.482.474.604.798l1.247 3.261c.12.317.15.664.086.999s-.219.642-.447.884l-1.747 1.874c.273 1.648 1.016 3.168 2.128 4.353s2.539 1.978 4.09 2.273l1.78-1.874c.231-.239.523-.4.839-.464s.644-.027.941.106l3.092 1.316c.301.133.557.359.737.647s.274.628.272.974v4.603c0 .694-.259 1.359-.721 1.849s-1.087.766-1.74.766zM7.802 8.41c-.218 0-.426.092-.58.255s-.24.385-.24.616v.07c.377 5.161 2.797 17.366 17.175 18.238a.783.783 0 0 0 .595-.218.91.91 0 0 0 .275-.602v-4.655l-3.092-1.317-2.354 2.485-.394-.052c-7.136-.95-8.104-8.535-8.104-8.613l-.049-.419 2.329-2.502-1.23-3.287H7.802z"/></symbol><symbol id="icon-chair" viewBox="0 0 32 32"><path d="m31.65 21.471-7.256-9.607c-.438-.58-1.317-1.018-2.044-1.018h-1.265v-.511a2.216 2.216 0 0 0-1.744-2.162A2.556 2.556 0 0 0 16.83 6.08H9.845a.511.511 0 0 0-.511.511v1.532H8.041L6.91 6.627c.329-.372.543-.833.613-1.336A2.533 2.533 0 0 0 7.031 3.4l-1.06-1.403a2.536 2.536 0 0 0-1.685-.99 2.538 2.538 0 0 0-1.512.254A1.733 1.733 0 0 0 .348 3.684L8.22 14.105a.51.51 0 0 0 .408.203h2.286v.483c0 .958.779 1.737 1.737 1.737h1.815v3.902h-.308a.511.511 0 0 0-.511.511v5.723H6.261a.511.511 0 0 0-.511.511v3.404a.511.511 0 0 0 1.022 0v-2.894h18.452v2.894a.511.511 0 0 0 1.022 0v-3.404a.511.511 0 0 0-.511-.511h-7.386v-5.723a.511.511 0 0 0-.511-.511h-.308v-3.902h1.815c.958 0 1.737-.779 1.737-1.737v-.483h.817l6.988 9.249c.331.437.834.688 1.38.688a1.733 1.733 0 0 0 1.381-2.774zm-1.381 1.752a.706.706 0 0 1-.566-.282l-7.141-9.451a.509.509 0 0 0-.407-.203H8.883L1.164 3.068a.71.71 0 0 1 1.132-.854L3.441 3.73a.51.51 0 1 0 .815-.615l-.784-1.038a1.53 1.53 0 0 1 1.685.536l1.06 1.403a1.522 1.522 0 0 1 .055 1.767l-.784-1.038a.51.51 0 1 0-.815.615l4.764 6.306a.51.51 0 0 0 .407.203h12.505c.401 0 .987.292 1.229.612l7.256 9.607a.71.71 0 0 1-.565 1.136zm-10.922-7.716h-6.694a.717.717 0 0 1-.716-.716v-.483h8.127v.483a.717.717 0 0 1-.716.716zm-4.676 11.157v-5.213h2.659v5.213h-2.659zm.818-6.234v-3.902h1.021v3.902h-1.021zm1.34-13.328c.666 0 1.233.427 1.444 1.021h-7.918V7.102h6.474zm2.043 2.043c.657 0 1.191.535 1.191 1.191v.511h-9.965L8.812 9.145h10.059z"/><path d="M23.694 28.707H8.306a.511.511 0 0 0 0 1.022h15.388a.511.511 0 0 0 0-1.021z"/></symbol><symbol id="icon-facebook" viewBox="0 0 32 32"><path fill="#fff" style="fill:var(--color1,#fff)" d="M20.022 16.627h-2.855v10.459h-4.326V16.627h-2.057v-3.676h2.057v-2.379c0-1.701.808-4.365 4.364-4.365l3.204.013v3.568h-2.325c-.381 0-.918.191-.918 1.002v2.163h3.233l-.378 3.672z"/></symbol><symbol id="icon-instagram" viewBox="0 0 32 32"><path fill="#fff" style="fill:var(--color1,#fff)" d="M25.408 11.891c-.043-.966-.199-1.63-.423-2.206a4.436 4.436 0 0 0-1.052-1.613 4.47 4.47 0 0 0-1.609-1.048c-.579-.224-1.24-.38-2.206-.423-.973-.046-1.283-.057-3.752-.057s-2.778.011-3.748.053c-.966.043-1.631.199-2.206.423a4.446 4.446 0 0 0-1.613 1.051A4.47 4.47 0 0 0 7.751 9.68c-.224.579-.38 1.24-.423 2.206-.046.973-.057 1.282-.057 3.751s.011 2.778.053 3.747c.043.966.199 1.63.423 2.206.231.611.59 1.158 1.051 1.612a4.47 4.47 0 0 0 1.609 1.048c.579.224 1.24.38 2.206.423.97.043 1.279.053 3.748.053s2.778-.011 3.748-.053c.966-.043 1.631-.199 2.206-.423a4.654 4.654 0 0 0 2.661-2.66c.224-.579.38-1.24.423-2.206.043-.97.053-1.279.053-3.747s-.004-2.778-.046-3.747zm-1.637 7.423c-.039.888-.188 1.367-.313 1.687a3.014 3.014 0 0 1-1.727 1.726c-.32.124-.803.273-1.688.312-.959.043-1.247.053-3.673.053s-2.718-.011-3.673-.053c-.888-.039-1.368-.188-1.687-.312a2.81 2.81 0 0 1-1.044-.678 2.833 2.833 0 0 1-.679-1.044c-.124-.32-.274-.803-.313-1.687-.043-.959-.053-1.247-.053-3.673s.011-2.717.053-3.672c.039-.888.188-1.367.313-1.687.146-.394.377-.753.682-1.044.295-.302.65-.533 1.044-.678.32-.124.803-.273 1.688-.313.959-.043 1.247-.053 3.673-.053 2.43 0 2.718.011 3.673.053.888.039 1.368.188 1.687.313.394.146.753.376 1.044.678.302.295.533.65.679 1.044.124.32.274.803.313 1.687.043.959.053 1.247.053 3.672s-.011 2.71-.053 3.669z"/><path fill="#fff" style="fill:var(--color1,#fff)" d="M16.364 10.909a4.728 4.728 0 1 0 .002 9.456 4.728 4.728 0 0 0-.002-9.456zm0 7.794a3.066 3.066 0 1 1 0-6.133 3.066 3.066 0 0 1 0 6.133zM21.818 11.273a1.091 1.091 0 1 1-2.182 0 1.091 1.091 0 0 1 2.182 0z"/></symbol><symbol id="logo" viewBox="0 0 114 32"><path fill="#f2f2f2" style="fill:var(--color4,#f2f2f2)" d="M40.081 21.832c-.278 0-.557-.039-.835-.117a1.871 1.871 0 0 1-.785-.417c-.234-.223-.417-.54-.551-.952s-.2-.957-.2-1.636l.033-4.558h-1.235v-.935c.301-.011.607-.122.918-.334s.584-.495.818-.851c.234-.356.395-.74.484-1.152h.785v2.337h2.571v.868l-2.571.033-.033 4.458c0 .423.033.796.1 1.119.078.312.2.557.367.735.178.167.417.25.718.25.256 0 .518-.078.785-.234.278-.156.54-.412.785-.768l.568.501c-.267.39-.534.696-.801.918s-.523.384-.768.484a2.233 2.233 0 0 1-.668.2c-.2.033-.362.05-.484.05zm9.19-.267c-.022-.178-.039-.334-.05-.467s-.028-.273-.05-.417a4.236 4.236 0 0 1-1.219.868 3.354 3.354 0 0 1-1.352.284c-.801 0-1.408-.195-1.82-.584-.401-.401-.601-.896-.601-1.486 0-.512.15-.957.451-1.336s.696-.685 1.185-.918a6.156 6.156 0 0 1 1.603-.534 8.244 8.244 0 0 1 1.703-.184v-.985c0-.356-.033-.685-.1-.985a1.359 1.359 0 0 0-.417-.751c-.2-.2-.518-.301-.952-.301a2.018 2.018 0 0 0-.868.167 1.289 1.289 0 0 0-.668.568.587.587 0 0 1 .167.317c.033.111.05.217.05.317 0 .156-.067.334-.2.534-.134.189-.362.278-.685.267-.267 0-.473-.089-.618-.267a1.096 1.096 0 0 1-.2-.651c0-.401.145-.757.434-1.069.301-.312.707-.557 1.219-.735s1.085-.267 1.72-.267c.957 0 1.67.25 2.137.751.479.501.718 1.291.718 2.371v1.152c0 .367-.006.735-.017 1.102v1.169c0 .167-.006.356-.017.568s-.028.434-.05.668l.584-.033c.2-.011.39-.017.568-.017v.885h-2.655zm-.15-4.007a7.877 7.877 0 0 0-1.102.15c-.367.078-.701.195-1.002.351s-.545.356-.735.601c-.178.245-.267.54-.267.885.022.378.145.657.367.835.234.178.506.267.818.267.39 0 .735-.072 1.035-.217a4.1 4.1 0 0 0 .885-.634 4.097 4.097 0 0 1-.017-.367v-.968c.011-.278.017-.579.017-.902zm7.809 4.274c-.278 0-.557-.039-.835-.117a1.871 1.871 0 0 1-.785-.417c-.234-.223-.417-.54-.551-.952s-.2-.957-.2-1.636l.033-4.558h-1.235v-.935c.301-.011.607-.122.918-.334s.584-.495.818-.851c.234-.356.395-.74.484-1.152h.785v2.337h2.571v.868l-2.571.033-.033 4.458c0 .423.033.796.1 1.119.078.312.2.557.367.735.178.167.417.25.718.25.256 0 .518-.078.785-.234.278-.156.54-.412.785-.768l.568.501c-.267.39-.534.696-.801.918s-.523.384-.768.484a2.233 2.233 0 0 1-.668.2c-.2.033-.362.05-.484.05zm7.568 0c-.278 0-.557-.039-.835-.117a1.871 1.871 0 0 1-.785-.417c-.234-.223-.417-.54-.551-.952s-.2-.957-.2-1.636l.033-4.558h-1.235v-.935c.301-.011.607-.122.918-.334s.584-.495.818-.851c.234-.356.395-.74.484-1.152h.785v2.337h2.571v.868l-2.571.033-.033 4.458c0 .423.033.796.1 1.119.078.312.2.557.367.735.178.167.417.25.718.25.256 0 .518-.078.785-.234.278-.156.54-.412.785-.768l.568.501c-.267.39-.534.696-.801.918s-.523.384-.768.484a2.233 2.233 0 0 1-.668.2c-.2.033-.362.05-.484.05zm8.39 0c-.79 0-1.503-.178-2.137-.534s-1.141-.851-1.52-1.486c-.367-.646-.551-1.386-.551-2.221 0-.902.184-1.697.551-2.387.379-.701.885-1.252 1.52-1.653s1.341-.601 2.12-.601c.79 0 1.503.184 2.137.551a3.904 3.904 0 0 1 1.503 1.503c.378.634.568 1.369.568 2.204 0 .879-.184 1.67-.551 2.371s-.868 1.252-1.503 1.653c-.623.401-1.336.601-2.137.601zm.117-.834c.534-.011.952-.178 1.252-.501.312-.323.534-.735.668-1.235a6.24 6.24 0 0 0 .2-1.586 7.3 7.3 0 0 0-.134-1.402c-.078-.467-.206-.89-.384-1.269s-.412-.679-.701-.902c-.289-.234-.64-.345-1.052-.334-.523 0-.952.161-1.286.484-.323.323-.562.74-.718 1.252a5.739 5.739 0 0 0-.217 1.603c0 .657.083 1.28.25 1.87s.423 1.074.768 1.453c.356.378.807.568 1.352.568zm10.386.834c-.79 0-1.503-.178-2.137-.534s-1.141-.851-1.519-1.486c-.367-.646-.551-1.386-.551-2.221 0-.902.184-1.697.551-2.387.378-.701.885-1.252 1.519-1.653s1.341-.601 2.12-.601c.79 0 1.503.184 2.137.551a3.904 3.904 0 0 1 1.503 1.503c.378.634.568 1.369.568 2.204 0 .879-.184 1.67-.551 2.371s-.868 1.252-1.503 1.653c-.623.401-1.336.601-2.137.601zm.116-.834c.534-.011.952-.178 1.252-.501.312-.323.534-.735.668-1.235a6.24 6.24 0 0 0 .2-1.586 7.3 7.3 0 0 0-.134-1.402c-.078-.467-.206-.89-.384-1.269s-.412-.679-.701-.902c-.289-.234-.64-.345-1.052-.334-.523 0-.952.161-1.286.484-.323.323-.562.74-.718 1.252a5.739 5.739 0 0 0-.217 1.603c0 .657.083 1.28.25 1.87s.423 1.074.768 1.453c.356.378.807.568 1.352.568zm7.565.834c-.301 0-.557-.111-.768-.334a1.18 1.18 0 0 1-.301-.818c0-.312.106-.579.317-.801.223-.234.473-.351.751-.351.301 0 .551.117.751.351.2.223.301.49.301.801 0 .323-.106.595-.317.818a.95.95 0 0 1-.735.334z"/><path fill="#fff" style="fill:var(--color2,#fff)" d="M95.133 11.464v-.568c.011-.2.028-.412.05-.634l-.618.033c-.2 0-.39.006-.568.017v-.885c.501 0 .902-.022 1.202-.067.301-.056.529-.117.685-.184a1.1 1.1 0 0 0 .367-.217h.618v4.942a3.38 3.38 0 0 1 1.119-.701c.423-.167.863-.25 1.319-.25.69 0 1.308.173 1.853.518.557.345.991.835 1.302 1.469.323.634.484 1.386.484 2.254 0 .924-.195 1.736-.584 2.438-.378.701-.885 1.247-1.519 1.636a4.095 4.095 0 0 1-2.137.568c-.356 0-.762-.067-1.219-.2-.445-.134-.851-.406-1.219-.818l-.434.751h-.735l.033-10.101zm1.736 7.513c0 .523.083.929.25 1.219.167.278.378.479.634.601.267.111.545.167.835.167.523.011.963-.134 1.319-.434s.623-.707.801-1.219c.189-.523.284-1.113.284-1.77 0-.668-.083-1.269-.25-1.803s-.423-.957-.768-1.269c-.345-.323-.779-.479-1.302-.467-.345 0-.679.078-1.002.234a2.461 2.461 0 0 0-.801.634v4.107zm12.156 7.113c-.979 0-1.77-.111-2.371-.334-.59-.211-1.018-.49-1.286-.835-.256-.334-.384-.69-.384-1.069 0-.301.067-.579.2-.835.145-.256.334-.484.568-.685.234-.189.495-.339.785-.451-.39-.122-.685-.295-.885-.518a1.267 1.267 0 0 1-.301-.851c0-.356.139-.707.417-1.052.289-.345.701-.579 1.235-.701-.501-.223-.902-.545-1.202-.968s-.456-.924-.467-1.503c-.011-.668.156-1.252.501-1.753.356-.501.807-.89 1.352-1.169a3.84 3.84 0 0 1 2.805-.267c.367.089.701.234 1.002.434.122-.323.284-.618.484-.885s.434-.479.701-.634c.278-.156.568-.234.868-.234.323 0 .568.083.735.25s.25.39.25.668c0 .089-.028.2-.083.334-.045.122-.128.228-.25.317s-.289.134-.501.134a.777.777 0 0 1-.484-.167.78.78 0 0 1-.25-.434c-.234.045-.429.184-.584.417a1.914 1.914 0 0 0-.284.685c.289.256.512.562.668.918.167.345.25.718.25 1.119 0 .634-.173 1.197-.518 1.686-.334.49-.774.874-1.319 1.152s-1.135.417-1.77.417c-.189 0-.367-.011-.534-.033a2.848 2.848 0 0 0-.551-.05c-.356 0-.651.083-.885.25-.223.167-.306.367-.25.601.056.245.289.406.701.484s1.007.134 1.786.167c.857.033 1.592.139 2.204.317.623.167 1.102.429 1.436.785.345.356.518.84.518 1.453 0 .456-.128.863-.384 1.219a2.884 2.884 0 0 1-1.002.885c-.412.245-.874.429-1.386.551s-1.024.184-1.536.184zm.15-.818c.902 0 1.597-.167 2.087-.501.501-.334.751-.712.751-1.135 0-.356-.122-.634-.367-.835-.245-.189-.59-.328-1.035-.417a9.954 9.954 0 0 0-1.536-.134c-.289-.022-.584-.039-.885-.05s-.579-.039-.835-.083a1.97 1.97 0 0 0-.601.651 1.867 1.867 0 0 0-.217.801c0 .512.239.924.718 1.235s1.119.467 1.92.467zm-.217-6.779c.378 0 .69-.095.935-.284.256-.2.445-.462.568-.785.134-.334.2-.696.2-1.085 0-.456-.067-.885-.2-1.286s-.328-.723-.584-.968c-.256-.245-.584-.367-.985-.367-.545 0-.968.217-1.269.651s-.451.957-.451 1.569c0 .49.067.929.2 1.319.145.378.351.679.618.902s.59.334.968.334zM32.36 10.57l-.258-.155.412-.67c.103-.155.052-.361-.103-.412l-.927-.618c-.155-.103-.361-.052-.412.103l-.412.67-.258-.155-1.237-.773-.206-.206-.618-.361c-.051-.258-.309-.618-.773-.979l.206-.309c.155-.258.103-.567-.155-.721l-.567-.361c-.258-.155-.567-.103-.721.155l-.206.361c-.464-.206-.876-.309-1.134-.258l-.721-.464-.052-.155-.721-3.452c.103-.052.206-.155.258-.258s.103-.258.155-.361l1.082-.206c.206-.052.361-.258.309-.464s-.258-.361-.464-.309l-1.134.206a.629.629 0 0 0-.258-.258c-.464-.309-1.082-.155-1.391.309-.052.103-.103.258-.155.361l-1.082.206c-.103 0-.206.103-.258.206l-.258-.258-.155.103.464.567.567.721-.464.67-1.546-.979c-.258-.155-.567-.103-.721.155l-.412.618c-.155.258-.103.567.155.721l.258.155-3.916 6.08-1.34-.928c-.206-.103-.464-.052-.567.103l-.361.567-1.237-.824-.515-.309-.155-.051c-.206-.155-.464-.052-.618.103l-.206.258-1.134-.721.309-.464c.051-.103.051-.258-.052-.309s-.258-.051-.309.052l-.309.464-.052-.052c-.258-.155-.567-.103-.721.155L6.8 8.56c-.155.258-.103.567.155.721l.052.051-.309.515c-.052.103-.052.258.052.309s.258.052.309-.052l.309-.464 1.134.721-.206.258c-.155.206-.052.464.103.618l.155.103.515.309 1.237.825-.206.361c-1.7-.928-2.267-.309-2.422-.103l-5.926 9.172c-.361.618.103 1.597 1.649 2.783l-.824 1.288c.309.206.618.773.052 1.597-.515.824-1.237.618-1.237.618L.001 31.797s3.092-3.195 3.555-3.916c.309-.464.979-1.494 1.391-2.216 1.7.928 3.092 1.288 3.452.67l5.926-9.121c.309-.464 0-1.34-.876-2.216l.67-.979.515-.825 1.134.773c-.155.258 0 .721.412.979s.876.258 1.031 0l2.628 1.7c-.155.258 0 .721.412.979s.876.258 1.031 0l2.473 1.597c-.103.155-.051.361.155.618l-.155.206c-.103.155-.051.361.103.412l.927.618c.155.103.361.052.412-.103l.103-.155c.361.103.618.051.721-.103.103.052.206.052.258-.052l.309-.464c.051-.103.051-.206-.052-.258l-.464-.309 1.855-2.834c.103-.155.051-.361-.103-.412l-.927-.618c-.155-.103-.361-.052-.412.103l-1.752 2.731-.258-.155 4.535-7.008.258.155c-.052.155-.052.309.103.412l.927.618c.155.103.309.052.412-.051l.258.155c.309.206.67.103.876-.206l.721-1.082c.155-.309.103-.67-.206-.876zM25.146.47c.052.206-.206.309-.206.103s0-.258-.155-.309c.052 0 .361 0 .361.206zm-1.133.103s.052-.052.103-.052h.309c.051 0 .103.052.103.052s-.155.052-.258.052h-.361s.051-.052.103-.052zM6.905 8.663l.464-.721a.399.399 0 0 1 .515-.103c-.309-.103-.979.825-.979.825zM.979 29.945l-.412 1.031v-.103c0-.051.052-.155.052-.258.052-.103.052-.206.103-.361 0-.052.052-.103.052-.206 0-.052.052-.103.052-.206.052-.103.103-.258.155-.361l.155-.309c.052-.103.103-.155.155-.206s.052-.103.052-.103c.052.052-.155.567-.361 1.082zm2.267-2.937c0 .103-.052.206-.103.309 0 .052-.052.103-.052.155s-.052.103-.103.155l-.103.103c-.052.051-.052.103-.103.155 0 .052-.052.052-.052.103l-.103.103a1.116 1.116 0 0 1-.258.206c-.103.052-.155.103-.258.103 0 .052-.052.052-.103.052h-.413.155c.052 0 .103 0 .155-.052.052 0 .103-.051.206-.103.052-.052.155-.103.206-.155s.155-.103.206-.206c.052.051.052 0 .103 0 .052-.052.052-.103.103-.103.052-.052.052-.103.103-.155l.103-.103c.052-.052.052-.103.103-.155 0-.051.052-.103.052-.155s.052-.103.052-.155c0-.052 0-.103.052-.155v-.258c0-.103 0-.155-.052-.258 0-.051-.052-.155-.052-.206-.052-.051-.052-.103-.103-.155-.052-.103-.103-.103-.103-.103l.103.103c.052.052.052.103.103.155 0 .052.052.052.052.103s.052.052.052.103c.052.103.052.155.052.258v.309zM9.378 11.24l.412-.618.206.103-.258.361 1.031.67-.155.206-1.237-.721zm.31 1.7s0 .051 0 0l.051.051a.718.718 0 0 0 .206.155c.052.051.103.051.155.103s.103.103.155.103c.103.103.206.155.361.258.103.103.206.155.309.258s.206.155.309.258c.103.051.155.155.206.155l.052.051s-.103-.103-.309-.206c-.206-.103-.412-.309-.67-.464-.103-.103-.206-.206-.309-.258-.103-.103-.206-.155-.258-.258s-.155-.155-.155-.206c-.103.051-.155.051-.103 0zM5.204 25.307s-.052-.051-.155-.103c-.052-.052-.103-.052-.206-.103-.052-.051-.155-.103-.258-.155s-.206-.103-.309-.206c-.103-.051-.206-.155-.309-.206-.103-.103-.206-.155-.309-.258s-.206-.206-.309-.258l-.309-.309c-.103-.103-.206-.206-.258-.309-.103-.103-.155-.206-.258-.309s-.155-.206-.206-.258-.206-.309-.309-.412c-.052-.103-.103-.155-.103-.155l.052.052.103.103.155.155c.052.051.103.155.206.206.103 0 .155.103.258.206l.258.258c.103.103.206.155.309.258s.206.206.309.258c.103.103.206.206.309.258.103.155.155.206.258.309s.206.155.309.258c.103.103.155.155.258.206s.155.155.206.206l.155.155c.103.052.155.103.155.155zm-.773-1.597c-.67-.412-.773-.618-1.34-1.134s-.206-.825.258-.464c0 0 .464.618 1.494 1.185 1.031.618.309.876-.412.412zm2.01-.361s-.052-.052-.155-.103c-.052-.052-.103-.052-.206-.103-.052-.052-.155-.103-.258-.155s-.206-.103-.309-.206c-.103-.051-.206-.155-.309-.206-.103-.103-.206-.155-.309-.258s-.206-.155-.309-.258l-.309-.309-.309-.309c-.103-.103-.155-.206-.258-.258-.103-.103-.155-.206-.206-.258-.155-.155-.258-.309-.309-.412s-.103-.155-.103-.155l.052.052.103.103.155.155.206.206.258.258.258.258c.103.103.206.155.309.258s.206.206.309.258c.103.103.206.206.309.258.103.103.206.155.309.258s.206.155.309.258c.103.052.155.155.258.206s.155.155.206.206l.155.155c.155 0 .206.052.155.103zm-.773-1.494c-.721-.464-.773-.618-1.34-1.134s-.206-.825.258-.464c0 0 .464.618 1.494 1.185.979.618.309.825-.412.412zm2.061-.464s-.052-.052-.155-.103c-.052-.051-.103-.051-.206-.103-.052-.052-.155-.103-.258-.155s-.206-.103-.309-.206c-.103-.052-.206-.155-.309-.206-.103-.103-.206-.155-.309-.258s-.206-.155-.309-.258c-.103-.103-.206-.206-.309-.258-.103-.103-.206-.206-.309-.258l-.258-.258c-.103-.103-.155-.155-.206-.258-.155-.155-.258-.309-.309-.412s-.103-.155-.103-.155l.052.051.103.103c.052-.052.103 0 .155.052s.155.103.206.206c.052.051.155.155.258.206.103.103.206.155.258.258.103.103.206.155.309.258s.206.155.309.258c.103.103.206.155.309.258s.206.155.309.258c.103.103.206.155.309.258.103.052.155.155.258.206s.155.155.206.206l.155.155.155.155zm-.824-1.443c-.721-.464-.773-.618-1.34-1.134s-.206-.825.258-.464c0 0 .464.618 1.494 1.185.979.618.309.825-.412.412zm2.061-.515s-.051-.052-.155-.103c-.052-.051-.103-.051-.206-.103-.052-.052-.155-.103-.258-.155s-.206-.103-.258-.206c-.103-.052-.206-.155-.309-.206-.103-.103-.206-.155-.309-.258s-.206-.155-.309-.258c-.103-.103-.206-.206-.309-.258-.103-.103-.206-.206-.309-.258l-.258-.258c-.103-.103-.155-.155-.206-.258-.155-.155-.258-.309-.309-.412s-.103-.155-.103-.155l.052.052.103.103.155.155c.052.052.155.103.206.206.103.052.155.155.258.206s.206.155.258.258c.103.103.206.155.309.258s.206.155.309.258c.103.103.206.155.309.258s.206.155.309.258c.103.103.206.155.309.258.103.052.155.155.258.206s.155.155.206.206l.155.155c.103 0 .155.052.103.052zm-.824-1.392c-.721-.464-.773-.618-1.34-1.134s-.206-.825.258-.464c0 0 .464.618 1.494 1.185.979.618.309.876-.412.412zm2.112-.515s-.052-.052-.155-.103c-.051-.051-.103-.051-.206-.103-.052-.052-.155-.103-.258-.155s-.206-.103-.258-.206c-.103-.052-.206-.155-.309-.206s-.206-.155-.309-.258c-.103-.103-.206-.155-.309-.258s-.206-.155-.309-.258c-.103-.103-.206-.155-.309-.258s-.206-.155-.258-.258l-.258-.258c-.155-.155-.258-.309-.361-.361-.052-.103-.103-.155-.103-.155l.052.051.103.103.155.155c.051.052.155.103.206.155.103.052.155.155.258.206s.206.155.309.258c.103.103.206.155.309.258s.206.155.309.258c.103.103.206.155.309.258s.206.155.309.258c.103.052.206.155.309.258.103.052.206.155.258.206.103.052.155.155.206.206l.155.155c.103-.052.155 0 .155.052zm-.824-1.494c-.721-.464-.773-.618-1.34-1.134s-.206-.825.258-.464c0 0 .464.618 1.494 1.185.979.618.309.876-.412.412zm2.061-.464s-.052-.052-.155-.103-.258-.155-.412-.258c-.155-.103-.361-.258-.618-.412-.206-.155-.464-.309-.67-.464s-.412-.361-.618-.515-.361-.361-.515-.464c-.309-.309-.464-.515-.464-.515s.052.052.155.103l.155.155c.052.052.155.103.206.155.309.258.773.567 1.185.928.103.103.206.155.309.258s.206.155.309.258c.103.051.206.155.309.206s.206.155.258.206a.402.402 0 0 1 .206.206l.155.155c.155.051.206.103.206.103zm.309-5.359-1.031-.67-.258.361-.206-.103.412-.618 1.237.825-.155.206zm14.892 5.617c.052-.103.155-.103.258-.052l.876.567s-.67-.412-1.134-.515zm-.154-10.152c.052-.103.309-.103.361-.052l.825.515s-.67-.412-1.185-.464zM22.415.779c0-.052 0-.052.052-.052l-.052.052v.258c.052.103.103.206.206.258h.31c.052 0 .103-.052.155-.052.103 0 .155-.052.155-.103.052-.052.052-.103.052-.155V.83c0-.052 0-.103-.052-.155 0-.052-.052-.052-.052-.103.052.052.103.103.155.206s0 .258-.051.361c-.052.103-.206.206-.361.258s-.309 0-.412-.103a1.067 1.067 0 0 1-.206-.309.39.39 0 0 0 .103-.206zm.361 1.598.412 1.752-.876-.979.464-.773zm-1.082-.722-.309.464-.309-.361.618-.103zm-1.288-.412.103.103c.052.103.206.206.309.361s.258.309.412.515c.155.206.309.361.464.567s.309.412.464.567c.155.206.258.361.412.515.103.155.206.258.258.361s.103.155.103.155l-2.525-3.143zm2.318 3.092-.876-.567.206-.309.67.876zM19.53 2.428s.103.052.309.206c.206.103.515.309.876.515s.773.464 1.185.721c.412.258.927.567 1.391.876s.927.618 1.34.876c.412.309.824.567 1.185.773.361.258.618.412.824.567s.309.206.309.206l-3.71-2.37c-1.907-1.134-3.71-2.319-3.71-2.37zm.824 11.8.773.515-.155.258-2.628-1.7.155-.258.721.464c.258.155.618.103.773-.155l3.504-5.359c.155-.258.103-.618-.155-.773l-.721-.464.052-.052.103-.155 2.628 1.7-.155.103c0 .051-.052.051-.052.103l-.825-.515c-.258-.155-.618-.103-.773.155l-3.504 5.359a.66.66 0 0 0 .258.773zm.412-8.038c.206.155.206.103.618.412.773.515-2.731 4.535-3.092 5.101s-.927-.052-1.185-.206c-.258-.155.258-.773.567-1.237s2.319-4.586 3.092-4.071zm-.979-.619.052-.052c.103-.155.258-.155.412-.103l2.113 1.34c-.052 0-1.752-1.031-2.576-1.185zm-1.649-2.525.515-.773c.052-.155.258-.206.412-.103-.309.052-.927.876-.927.876zm-2.319 7.575-.67-.412 3.916-6.08 2.164 1.391-.103.206v.052l-.721-.464c-.258-.155-.618-.103-.773.155l-3.504 5.359c-.155.258-.103.618.155.773l.721.464-.155.258-1.134-.773.258-.412c.103-.155.052-.412-.155-.515zm7.266 6.081c-.206-.155-.515-.309-.876-.515s-.773-.464-1.237-.773c-.464-.309-.927-.618-1.391-.876l-1.391-.928c-.464-.31-.876-.567-1.237-.824-.361-.258-.67-.464-.876-.567-.206-.155-.309-.206-.309-.206s.103.051.309.206c.206.155.515.309.876.567.361.206.773.464 1.237.773s.927.618 1.391.876l1.391.928c.464.31.876.567 1.237.824.412.155.67.361.876.515.206.103.309.206.309.206s-.103-.052-.309-.206zm.464 0-1.134-.721.155-.258.67.412c.258.155.618.103.773-.155l-.464.721zm-1.237-2.474c-.361.567-.927-.052-1.185-.206s.258-.773.567-1.237c.309-.464 2.319-4.586 3.092-4.071.206.155.206.103.618.412.721.515-2.731 4.586-3.092 5.101zm1.546-5.977.052-.052c.103-.155.258-.155.412-.103l2.113 1.34s-1.7-1.031-2.576-1.185zm3.659 2.319c.155-.258.103-.618-.155-.773l-.67-.412.052-.052.103-.155 1.134.721-.464.67zm3.71-1.752c.052-.103.155-.103.258-.052l.876.567s-.67-.412-1.134-.515z"/></symbol><symbol id="icon-mashin" viewBox="0 0 32 32"><path d="M27.89 3.064a.511.511 0 0 0 .511-.511V.51a.511.511 0 0 0-.511-.511H11.821a.511.511 0 0 0-.511.511v7.66H8.348a.511.511 0 0 0-.511.511v.511H6.816v-.511a.511.511 0 0 0-.511-.511H5.13c-.845 0-1.532.687-1.532 1.532s.687 1.532 1.532 1.532h1.175a.511.511 0 0 0 .511-.511v-.511h1.021v.511c0 .282.229.511.511.511h1.94V12.3a2.967 2.967 0 0 0-2.451 2.917v7.967a2.967 2.967 0 0 0 2.451 2.917v2.054c0 .599.445 1.095 1.021 1.178v2.157a.511.511 0 0 0 1.022 0v-2.157a1.193 1.193 0 0 0 1.021-1.178v-2.054a2.967 2.967 0 0 0 2.451-2.917v-7.968a2.967 2.967 0 0 0-2.451-2.917v-1.066h14.537a.511.511 0 0 0 .511-.511V8.679a.511.511 0 0 0-.511-.511h-1.532V3.062h1.532zM4.621 9.702c0-.282.229-.511.511-.511h.664v1.021h-.664a.511.511 0 0 1-.511-.511zm22.758.511H8.859V9.192h18.52v1.021zM14.783 23.184c0 1.07-.87 1.94-1.94 1.94H10.8c-1.07 0-1.94-.87-1.94-1.94v-7.968c0-1.07.87-1.94 1.94-1.94h2.043c1.07 0 1.94.87 1.94 1.94v7.968zm-2.622 5.141h-.681a.172.172 0 0 1-.17-.17v-2.009h1.021v2.009c0 .092-.078.17-.17.17zm.171-16.07h-1.021v-1.021h1.021v1.021zm0-11.234H27.38v1.021H12.332V1.021zm5.991 7.149V4.596a.511.511 0 0 0-1.021 0V8.17h-2.928V3.064h4.971V8.17h-1.021zm-5.991-5.106h1.021V8.17h-1.021V3.064zM25.337 8.17h-1.021V4.596a.511.511 0 0 0-1.022 0V8.17h-2.928V3.064h4.971V8.17z"/><path d="M10.391 23.695h2.86a.511.511 0 0 0 0-1.022h-2.86a.511.511 0 0 0 0 1.022zM13.251 20.682h-2.86a.511.511 0 0 0 0 1.022h2.86a.511.511 0 0 0 0-1.022zM13.251 18.69h-2.86a.511.511 0 0 0 0 1.022h2.86a.511.511 0 0 0 0-1.022zM13.251 16.698h-2.86a.511.511 0 0 0 0 1.022h2.86a.511.511 0 0 0 0-1.022zM10.391 15.728h2.86a.511.511 0 0 0 0-1.022h-2.86a.511.511 0 0 0 0 1.022z"/></symbol><symbol id="icon-pin_light" viewBox="0 0 32 32"><path fill="none" stroke="#fff" style="stroke:var(--color2,#fff)" stroke-width="1.333" d="M26 16c0 6.691-7.318 11.204-9.433 12.369a1.16 1.16 0 0 1-1.133 0C13.318 27.204 6.001 22.691 6.001 16c0-6 4.845-10 10-10 5.333 0 10 4 10 10z"/><path fill="none" stroke="#fff" style="stroke:var(--color2,#fff)" stroke-width="1.333" d="M20.667 16a4.667 4.667 0 1 1-9.334 0 4.667 4.667 0 0 1 9.334 0z"/></symbol><symbol id="icon-pinterest" viewBox="0 0 32 32"><path fill="#f1f2f2" style="fill:var(--color1,#f1f2f2)" d="M16.776 21.071c-1.165-.09-1.655-.668-2.569-1.223-.502 2.636-1.116 5.162-2.935 6.482-.562-3.984.824-6.976 1.468-10.152-1.097-1.847.132-5.564 2.446-4.648 2.848 1.126-2.466 6.867 1.101 7.584 3.724.749 5.244-6.462 2.935-8.807-3.337-3.386-9.713-.077-8.929 4.77.191 1.185 1.416 1.545.489 3.18-2.136-.473-2.773-2.157-2.691-4.403.132-3.676 3.303-6.249 6.483-6.606 4.022-.45 7.797 1.477 8.318 5.26.586 4.27-1.816 8.894-6.116 8.562z"/></symbol><symbol id="icon-rose" viewBox="0 0 32 32"><path d="M25.102 14.861a9.114 9.114 0 0 0-.734-.428 8.637 8.637 0 0 0 .205-1.88V4.506a.516.516 0 0 0-.67-.524c-.509.167-1.008.365-1.492.592l-1.254-2.263-.002-.004a.55.55 0 0 0-.034-.053l-.01-.013a.432.432 0 0 0-.034-.039l-.007-.007a.428.428 0 0 0-.045-.04l-.012-.009a.35.35 0 0 0-.04-.027l-.013-.008a.493.493 0 0 0-.127-.052l-.048-.01a.435.435 0 0 0-.079-.006h-1.291L18.429.264a.511.511 0 0 0-.447-.263h-3.969a.511.511 0 0 0-.447.263l-.986 1.779h-1.291a.666.666 0 0 0-.127.016.493.493 0 0 0-.127.052l-.013.008-.04.027-.012.009a.582.582 0 0 0-.045.04l-.007.007-.034.039-.01.013c-.011.016-.022.032-.031.049l-.005.008-1.254 2.263a13.197 13.197 0 0 0-1.492-.593.512.512 0 0 0-.67.485v8.085c0 .645.07 1.274.205 1.88-.25.132-.496.275-.734.429-2.668 1.728-4.28 4.715-4.313 7.99a.51.51 0 0 0 .307.473 9.872 9.872 0 0 0 3.944.83 9.399 9.399 0 0 0 4.572-1.178 9.562 9.562 0 0 0-.051.976c0 3.179 1.63 6.156 4.361 7.964a.507.507 0 0 0 .564 0c2.73-1.808 4.36-4.785 4.36-7.964 0-.329-.018-.654-.051-.976a9.399 9.399 0 0 0 4.572 1.178c1.328 0 2.67-.274 3.944-.83a.51.51 0 0 0 .307-.473c-.033-3.274-1.645-6.261-4.313-7.989zm3.281 7.658c-2.606 1.021-5.488.759-7.774-.722a9.114 9.114 0 0 1-.26-.176 9.183 9.183 0 0 0-.556-1.56 8.587 8.587 0 0 0 1.935-1.245l4.701 3.045a.51.51 0 0 0 .555-.857l-4.503-2.918a7.959 7.959 0 0 0 1.596-2.651c.16.089.317.184.47.283 2.286 1.481 3.703 4.004 3.837 6.8zM16 30.869c-2.274-1.632-3.621-4.193-3.621-6.918a8.272 8.272 0 0 1 .779-3.514 8.961 8.961 0 0 0 2.331.44v7.992a.511.511 0 0 0 1.021 0v-7.992a8.995 8.995 0 0 0 2.331-.44 8.215 8.215 0 0 1 .779 3.513c0 2.724-1.347 5.286-3.621 6.918zm-12.383-8.35c.133-2.796 1.55-5.319 3.837-6.8.153-.099.31-.194.47-.283a7.985 7.985 0 0 0 1.596 2.651l-4.503 2.917a.51.51 0 1 0 .555.857l4.701-3.045a8.587 8.587 0 0 0 1.935 1.245 9.327 9.327 0 0 0-.556 1.56c-.086.06-.172.12-.26.176-2.287 1.481-5.169 1.743-7.775.722zM17.684 1.021l.566 1.021h-4.5l.566-1.021h3.368zm.67 3.376a1.847 1.847 0 0 1-1.771-1.333h3.542a1.847 1.847 0 0 1-1.771 1.333zm-5.476-1.333h2.539c-.222.769-.932 1.333-1.771 1.333s-1.549-.564-1.771-1.333h1.002zm.768 2.354c.974 0 1.836-.489 2.354-1.235a2.863 2.863 0 0 0 4.876-.273l.629 1.134a13.071 13.071 0 0 0-2.872 2.199A13.242 13.242 0 0 0 16 11.106a13.117 13.117 0 0 0-5.505-6.063l.628-1.133a2.866 2.866 0 0 0 2.522 1.508zm-4.095.274.005.002a12.06 12.06 0 0 1 5.935 6.873.52.52 0 0 0 .071.217c.544 1.716.709 3.575.424 5.462a.51.51 0 0 0 .418.579l.011.002a.51.51 0 0 0 .581-.429 13.097 13.097 0 0 0-.458-5.874 12.167 12.167 0 0 1 7.015-7.33v7.359c0 4.518-3.733 7.243-7.396 7.318l-.156.002c-3.712 0-7.552-2.738-7.552-7.32V5.194c.379.149.747.316 1.103.498z"/></symbol><symbol id="icon-time_light" viewBox="0 0 32 32"><path fill="none" stroke="#fff" style="stroke:var(--color2,#fff)" stroke-width="1.333" d="M27.333 16c0 6.259-5.074 11.333-11.333 11.333S4.667 22.259 4.667 16 9.741 4.667 16 4.667 27.333 9.741 27.333 16z"/><path fill="none" stroke="#fff" style="stroke:var(--color2,#fff)" stroke-linecap="round" stroke-width="1.333" d="M22 16h-5.667a.333.333 0 0 1-.333-.333v-4.333"/></symbol><symbol id="icon-zoom-in" viewBox="0 0 32 32"><path fill="#fff" style="fill:var(--color2,#fff)" d="M17.51 12.083h-3.625V8.458a.604.604 0 0 0-1.208 0v3.625H9.052a.604.604 0 0 0 0 1.208h3.625v3.625a.604.604 0 0 0 1.208 0v-3.625h3.625a.604.604 0 0 0 0-1.208z"/><path fill="#fff" style="fill:var(--color2,#fff)" d="m31.238 30.977-8.977-9.336a12.645 12.645 0 0 0 3.708-8.954C25.969 5.691 20.278 0 13.282 0S.595 5.691.595 12.687c0 6.996 5.691 12.687 12.687 12.687 3.071 0 5.889-1.098 8.086-2.919l8.999 9.359a.6.6 0 0 0 .855.017.604.604 0 0 0 .017-.854zM1.802 12.687c0-6.33 5.149-11.479 11.479-11.479S24.76 6.357 24.76 12.687c0 6.33-5.149 11.479-11.479 11.479S1.802 19.017 1.802 12.687z"/></symbol><symbol id="icon-menu" viewBox="0 0 32 32"><path fill="#f83b4c" style="fill:var(--color1,#f83b4c)" d="M2.952 7h26.096c.526 0 .952.426.952.952v.096a.952.952 0 0 1-.952.952H2.952A.952.952 0 0 1 2 8.048v-.096C2 7.426 2.426 7 2.952 7zM2.952 15h26.096c.526 0 .952.426.952.952v.096a.952.952 0 0 1-.952.952H2.952A.952.952 0 0 1 2 16.048v-.096c0-.526.426-.952.952-.952zM2.952 23h26.096c.526 0 .952.426.952.952v.096a.952.952 0 0 1-.952.952H2.952A.952.952 0 0 1 2 24.048v-.096c0-.526.426-.952.952-.952z"/></symbol><symbol id="icon-close_40px" viewBox="0 0 32 32"><path d="M23.733 10.304 22.229 8.8l-5.963 5.963L10.303 8.8l-1.504 1.504 5.963 5.963-5.963 5.963 1.504 1.504 5.963-5.963 5.963 5.963 1.504-1.504-5.963-5.963 5.963-5.963z"/></symbol><symbol id="icon-Arrow-left" viewBox="0 0 85 32"><path d="M.903 17.383a1.954 1.954 0 0 1 0-2.765L13.347 2.174a1.954 1.954 0 1 1 2.765 2.765L5.05 16.001l11.062 11.062a1.954 1.954 0 1 1-2.765 2.765L.903 17.384zm81.383-3.338a1.955 1.955 0 1 1 0 3.91v-3.911zm-78.045 3.91H2.286v-3.911h1.955v3.911zm0-3.91h78.045v3.911H4.241v-3.911z"/></symbol><symbol id="icon-Arrow-right" viewBox="0 0 85 32"><path d="M83.669 17.383a1.954 1.954 0 0 0 0-2.765L71.225 2.174a1.956 1.956 0 0 0-2.766 2.765l11.062 11.062-11.062 11.062a1.954 1.954 0 1 0 2.766 2.765l12.444-12.444zM2.286 14.045a1.955 1.955 0 1 0 0 3.91v-3.911zm78.044 3.91h1.955v-3.911H80.33v3.911zm0-3.91H2.285v3.911H80.33v-3.911z"/></symbol></defs></svg>