<svg aria-hidden="true" style="position: absolute; width: 0; height: 0; overflow: hidden;" version="1.1" xmlns="http://www.w3.org/2000/svg" xmlns:xlink="http://www.w3.org/1999/xlink">
<defs>
<symbol id="icon-arrow-down" viewBox="0 0 32 32">
<path fill="#000" style="fill: var(--color1, #000)" d="M0 16c0 8.837 7.163 16 16 16s16-7.163 16-16c0-8.837-7.163-16-16-16s-16 7.163-16 16z"></path>
<path fill="#fff" style="fill: var(--color2, #fff)" d="M15.787 19.423c-0.284 0.284-0.745 0.284-1.028 0l-4.628-4.628c-0.284-0.284-0.284-0.744 0-1.028s0.745-0.284 1.028 0l4.114 4.114 4.114-4.114c0.284-0.284 0.744-0.284 1.029 0s0.284 0.745 0 1.028l-4.628 4.628zM16 18.182v0.727h-1.455v-0.727h1.455z"></path>
</symbol>
<symbol id="icon-arrow-left" viewBox="0 0 32 32">
<path fill="none" stroke="#6f777d" style="stroke: var(--color3, #6f777d)" stroke-linejoin="miter" stroke-linecap="butt" stroke-miterlimit="4" stroke-width="1.4545" d="M16 0.727c-8.435 0-15.273 6.838-15.273 15.273s6.838 15.273 15.273 15.273c8.435 0 15.273-6.838 15.273-15.273s-6.838-15.273-15.273-15.273z"></path>
<path fill="#6f777d" style="fill: var(--color3, #6f777d)" d="M12.577 15.787c-0.284-0.284-0.284-0.745 0-1.028l4.628-4.628c0.284-0.284 0.744-0.284 1.029 0s0.284 0.745 0 1.028l-4.114 4.114 4.114 4.114c0.284 0.284 0.284 0.744 0 1.029s-0.744 0.284-1.029 0l-4.628-4.628zM13.818 16h-0.727v-1.455h0.727v1.455z"></path>
</symbol>
<symbol id="icon-arrow-right" viewBox="0 0 32 32">
<path fill="#6f777d" style="fill: var(--color3, #6f777d)" d="M16 0c8.837 0 16 7.163 16 16s-7.163 16-16 16c-8.837 0-16-7.163-16-16s7.163-16 16-16z"></path>
<path fill="#fff" style="fill: var(--color2, #fff)" d="M19.423 15.787c0.284-0.284 0.284-0.745 0-1.028l-4.628-4.628c-0.284-0.284-0.744-0.284-1.028 0s-0.284 0.745 0 1.028l4.114 4.114-4.114 4.114c-0.284 0.284-0.284 0.744 0 1.029s0.745 0.284 1.028 0l4.628-4.628zM18.182 16h0.727v-1.455h-0.727v1.455z"></path>
</symbol>
<symbol id="icon-arrow-up" viewBox="0 0 32 32">
<path fill="#6f777d" style="fill: var(--color3, #6f777d)" d="M32 16c0-8.837-7.163-16-16-16s-16 7.163-16 16c0 8.837 7.163 16 16 16s16-7.163 16-16z"></path>
<path fill="#fff" style="fill: var(--color2, #fff)" d="M16.213 12.577c0.284-0.284 0.744-0.284 1.029 0l4.628 4.628c0.284 0.284 0.284 0.744 0 1.029s-0.744 0.284-1.029 0l-4.114-4.114-4.114 4.114c-0.284 0.284-0.744 0.284-1.028 0s-0.284-0.744 0-1.029l4.628-4.628zM16 13.818v-0.727h1.455v0.727h-1.455z"></path>
</symbol>
<symbol id="icon-carbon-phone" viewBox="0 0 32 32">
<path fill="#fff" style="fill: var(--color2, #fff)" d="M24.206 29.333h-0.139c-16.117-0.985-18.405-15.439-18.725-19.851-0.026-0.343 0.012-0.688 0.112-1.015s0.26-0.63 0.47-0.892c0.21-0.262 0.467-0.476 0.756-0.632s0.603-0.25 0.926-0.276h4.519c0.329-0 0.65 0.104 0.922 0.3s0.482 0.474 0.604 0.798l1.247 3.261c0.12 0.317 0.15 0.664 0.086 0.999s-0.219 0.642-0.447 0.884l-1.747 1.874c0.273 1.648 1.016 3.168 2.128 4.353s2.539 1.978 4.090 2.273l1.78-1.874c0.231-0.239 0.523-0.4 0.839-0.464s0.644-0.027 0.941 0.106l3.092 1.316c0.301 0.133 0.557 0.359 0.737 0.647s0.274 0.628 0.272 0.974v4.603c0 0.694-0.259 1.359-0.721 1.849s-1.087 0.766-1.74 0.766zM7.802 8.41c-0.218 0-0.426 0.092-0.58 0.255s-0.24 0.385-0.24 0.616v0.070c0.377 5.161 2.797 17.366 17.175 18.238 0.108 0.007 0.216-0.009 0.318-0.046s0.196-0.096 0.277-0.172 0.147-0.168 0.194-0.272c0.047-0.103 0.075-0.215 0.081-0.33v-4.655l-3.092-1.317-2.354 2.485-0.394-0.052c-7.136-0.95-8.104-8.535-8.104-8.613l-0.049-0.419 2.329-2.502-1.23-3.287h-4.331z"></path>
</symbol>
<symbol id="icon-chair" viewBox="0 0 32 32">
<path d="M31.65 21.471l-7.256-9.607c-0.438-0.58-1.317-1.018-2.044-1.018h-1.265v-0.511c0-1.059-0.749-1.947-1.744-2.162-0.217-1.189-1.26-2.093-2.511-2.093h-6.985c-0.282 0-0.511 0.229-0.511 0.511v1.532h-1.293l-1.131-1.496c0.329-0.372 0.543-0.833 0.613-1.336 0.094-0.675-0.080-1.347-0.492-1.891l-1.060-1.403c-0.411-0.544-1.009-0.896-1.685-0.99-0.526-0.073-1.049 0.017-1.512 0.254-0.297-0.226-0.66-0.351-1.045-0.351-0.954 0-1.731 0.776-1.731 1.731 0 0.379 0.121 0.74 0.35 1.043l7.872 10.421c0.096 0.128 0.247 0.203 0.408 0.203h2.286v0.483c0 0.958 0.779 1.737 1.737 1.737h1.815v3.902h-0.308c-0.282 0-0.511 0.229-0.511 0.511v5.723h-7.386c-0.282 0-0.511 0.229-0.511 0.511v3.404c0 0.282 0.229 0.511 0.511 0.511s0.511-0.229 0.511-0.511v-2.894h18.452v2.894c0 0.282 0.229 0.511 0.511 0.511s0.511-0.229 0.511-0.511v-3.404c0-0.282-0.229-0.511-0.511-0.511h-7.386v-5.723c0-0.282-0.229-0.511-0.511-0.511h-0.308v-3.902h1.815c0.958 0 1.737-0.779 1.737-1.737v-0.483h0.817l6.988 9.249c0.331 0.437 0.834 0.688 1.38 0.688 0.954 0 1.731-0.776 1.731-1.731 0-0.379-0.121-0.74-0.35-1.043zM30.269 23.223c-0.224 0-0.43-0.103-0.566-0.282l-7.141-9.451c-0.096-0.128-0.247-0.203-0.407-0.203h-13.272l-7.719-10.219c-0.094-0.124-0.144-0.272-0.144-0.427 0-0.391 0.318-0.709 0.71-0.709 0.224 0 0.43 0.103 0.566 0.282l1.145 1.516c0.17 0.225 0.49 0.27 0.715 0.1s0.27-0.49 0.1-0.715l-0.784-1.038c0.215-0.068 0.444-0.090 0.674-0.058 0.405 0.056 0.764 0.267 1.011 0.594l1.060 1.403c0.247 0.326 0.351 0.729 0.295 1.135-0.032 0.23-0.115 0.444-0.24 0.632l-0.784-1.038c-0.17-0.225-0.49-0.27-0.715-0.1s-0.27 0.49-0.1 0.715l4.764 6.306c0.097 0.128 0.247 0.203 0.407 0.203h12.505c0.401 0 0.987 0.292 1.229 0.612l7.256 9.607c0.094 0.124 0.144 0.272 0.144 0.427 0 0.391-0.318 0.709-0.709 0.709zM19.347 15.507h-6.694c-0.395 0-0.716-0.321-0.716-0.716v-0.483h8.127v0.483c0 0.395-0.321 0.716-0.716 0.716zM14.671 26.664v-5.213h2.659v5.213h-2.659zM15.489 20.43v-3.902h1.021v3.902h-1.021zM16.829 7.102c0.666 0 1.233 0.427 1.444 1.021h-7.918v-1.021h6.474zM18.872 9.145c0.657 0 1.191 0.535 1.191 1.191v0.511h-9.965l-1.286-1.702h10.059z"></path>
<path d="M23.694 28.707h-15.388c-0.282 0-0.511 0.229-0.511 0.511s0.229 0.511 0.511 0.511h15.388c0.282 0 0.51-0.228 0.511-0.51s-0.229-0.511-0.511-0.511z"></path>
</symbol>
<symbol id="icon-facebook" viewBox="0 0 32 32">
<path fill="#fff" style="fill: var(--color1, #fff)" d="M20.022 16.627h-2.855v10.459h-4.326v-10.459h-2.057v-3.676h2.057v-2.379c0-1.701 0.808-4.365 4.364-4.365l3.204 0.013v3.568h-2.325c-0.381 0-0.918 0.191-0.918 1.002v2.163h3.233l-0.378 3.672z"></path>
</symbol>
<symbol id="icon-instagram" viewBox="0 0 32 32">
<path fill="#fff" style="fill: var(--color1, #fff)" d="M25.408 11.891c-0.043-0.966-0.199-1.63-0.423-2.206-0.231-0.611-0.586-1.158-1.052-1.613-0.455-0.462-1.005-0.821-1.609-1.048-0.579-0.224-1.24-0.38-2.206-0.423-0.973-0.046-1.283-0.057-3.752-0.057s-2.778 0.011-3.748 0.053c-0.966 0.043-1.631 0.199-2.206 0.423-0.611 0.231-1.158 0.586-1.613 1.051-0.462 0.455-0.821 1.005-1.048 1.609-0.224 0.579-0.38 1.24-0.423 2.206-0.046 0.973-0.057 1.282-0.057 3.751s0.011 2.778 0.053 3.747c0.043 0.966 0.199 1.63 0.423 2.206 0.231 0.611 0.59 1.158 1.051 1.612 0.455 0.462 1.005 0.821 1.609 1.048 0.579 0.224 1.24 0.38 2.206 0.423 0.97 0.043 1.279 0.053 3.748 0.053s2.778-0.011 3.748-0.053c0.966-0.043 1.631-0.199 2.206-0.423 1.222-0.472 2.188-1.439 2.661-2.66 0.224-0.579 0.38-1.24 0.423-2.206 0.043-0.97 0.053-1.279 0.053-3.747s-0.004-2.778-0.046-3.747zM23.771 19.314c-0.039 0.888-0.188 1.367-0.313 1.687-0.306 0.792-0.934 1.421-1.727 1.726-0.32 0.124-0.803 0.273-1.688 0.312-0.959 0.043-1.247 0.053-3.673 0.053s-2.718-0.011-3.673-0.053c-0.888-0.039-1.368-0.188-1.687-0.312-0.394-0.146-0.753-0.377-1.044-0.678-0.302-0.295-0.533-0.65-0.679-1.044-0.124-0.32-0.274-0.803-0.313-1.687-0.043-0.959-0.053-1.247-0.053-3.673s0.011-2.717 0.053-3.672c0.039-0.888 0.188-1.367 0.313-1.687 0.146-0.394 0.377-0.753 0.682-1.044 0.295-0.302 0.65-0.533 1.044-0.678 0.32-0.124 0.803-0.273 1.688-0.313 0.959-0.043 1.247-0.053 3.673-0.053 2.43 0 2.718 0.011 3.673 0.053 0.888 0.039 1.368 0.188 1.687 0.313 0.394 0.146 0.753 0.376 1.044 0.678 0.302 0.295 0.533 0.65 0.679 1.044 0.124 0.32 0.274 0.803 0.313 1.687 0.043 0.959 0.053 1.247 0.053 3.672s-0.011 2.71-0.053 3.669z"></path>
<path fill="#fff" style="fill: var(--color1, #fff)" d="M16.364 10.909c-2.61 0-4.727 2.117-4.727 4.727s2.117 4.727 4.727 4.727c2.61 0 4.727-2.117 4.727-4.727s-2.117-4.727-4.727-4.727zM16.364 18.703c-1.693 0-3.066-1.373-3.066-3.066s1.373-3.066 3.066-3.066c1.693 0 3.066 1.373 3.066 3.066s-1.373 3.066-3.066 3.066v0z"></path>
<path fill="#fff" style="fill: var(--color1, #fff)" d="M21.818 11.273c0 0.602-0.488 1.091-1.091 1.091s-1.091-0.489-1.091-1.091c0-0.603 0.488-1.091 1.091-1.091s1.091 0.488 1.091 1.091v0z"></path>
</symbol>
<symbol id="logo" viewBox="0 0 114 32">
<path fill="#f2f2f2" style="fill: var(--color4, #f2f2f2)" d="M40.081 21.832c-0.278 0-0.557-0.039-0.835-0.117-0.278-0.067-0.54-0.206-0.785-0.417-0.234-0.223-0.417-0.54-0.551-0.952s-0.2-0.957-0.2-1.636l0.033-4.558h-1.235v-0.935c0.301-0.011 0.607-0.122 0.918-0.334s0.584-0.495 0.818-0.851c0.234-0.356 0.395-0.74 0.484-1.152h0.785v2.337h2.571v0.868l-2.571 0.033-0.033 4.458c0 0.423 0.033 0.796 0.1 1.119 0.078 0.312 0.2 0.557 0.367 0.735 0.178 0.167 0.417 0.25 0.718 0.25 0.256 0 0.518-0.078 0.785-0.234 0.278-0.156 0.54-0.412 0.785-0.768l0.568 0.501c-0.267 0.39-0.534 0.696-0.801 0.918s-0.523 0.384-0.768 0.484c-0.245 0.111-0.467 0.178-0.668 0.2-0.2 0.033-0.362 0.050-0.484 0.050zM49.271 21.565c-0.022-0.178-0.039-0.334-0.050-0.467s-0.028-0.273-0.050-0.417c-0.378 0.378-0.785 0.668-1.219 0.868-0.434 0.189-0.885 0.284-1.352 0.284-0.801 0-1.408-0.195-1.82-0.584-0.401-0.401-0.601-0.896-0.601-1.486 0-0.512 0.15-0.957 0.451-1.336s0.696-0.685 1.185-0.918c0.49-0.245 1.024-0.423 1.603-0.534 0.579-0.122 1.146-0.184 1.703-0.184v-0.985c0-0.356-0.033-0.685-0.1-0.985-0.067-0.312-0.206-0.562-0.417-0.751-0.2-0.2-0.518-0.301-0.952-0.301-0.289-0.011-0.579 0.045-0.868 0.167-0.289 0.111-0.512 0.301-0.668 0.568 0.089 0.089 0.145 0.195 0.167 0.317 0.033 0.111 0.050 0.217 0.050 0.317 0 0.156-0.067 0.334-0.2 0.534-0.134 0.189-0.362 0.278-0.685 0.267-0.267 0-0.473-0.089-0.618-0.267-0.134-0.189-0.2-0.406-0.2-0.651 0-0.401 0.145-0.757 0.434-1.069 0.301-0.312 0.707-0.557 1.219-0.735s1.085-0.267 1.72-0.267c0.957 0 1.67 0.25 2.137 0.751 0.479 0.501 0.718 1.291 0.718 2.371 0 0.401 0 0.785 0 1.152s-0.006 0.735-0.017 1.102c0 0.367 0 0.757 0 1.169 0 0.167-0.006 0.356-0.017 0.568s-0.028 0.434-0.050 0.668c0.189-0.011 0.384-0.022 0.584-0.033s0.39-0.017 0.568-0.017v0.885h-2.655zM49.121 17.558c-0.356 0.022-0.723 0.072-1.102 0.15-0.367 0.078-0.701 0.195-1.002 0.351s-0.545 0.356-0.735 0.601c-0.178 0.245-0.267 0.54-0.267 0.885 0.022 0.378 0.145 0.657 0.367 0.835 0.234 0.178 0.506 0.267 0.818 0.267 0.39 0 0.735-0.072 1.035-0.217 0.301-0.156 0.595-0.367 0.885-0.634-0.011-0.122-0.017-0.245-0.017-0.367 0-0.134 0-0.273 0-0.417 0-0.1 0-0.284 0-0.551 0.011-0.278 0.017-0.579 0.017-0.902zM56.93 21.832c-0.278 0-0.557-0.039-0.835-0.117-0.278-0.067-0.54-0.206-0.785-0.417-0.234-0.223-0.417-0.54-0.551-0.952s-0.2-0.957-0.2-1.636l0.033-4.558h-1.235v-0.935c0.301-0.011 0.607-0.122 0.918-0.334s0.584-0.495 0.818-0.851c0.234-0.356 0.395-0.74 0.484-1.152h0.785v2.337h2.571v0.868l-2.571 0.033-0.033 4.458c0 0.423 0.033 0.796 0.1 1.119 0.078 0.312 0.2 0.557 0.367 0.735 0.178 0.167 0.417 0.25 0.718 0.25 0.256 0 0.518-0.078 0.785-0.234 0.278-0.156 0.54-0.412 0.785-0.768l0.568 0.501c-0.267 0.39-0.534 0.696-0.801 0.918s-0.523 0.384-0.768 0.484c-0.245 0.111-0.467 0.178-0.668 0.2-0.2 0.033-0.362 0.050-0.484 0.050zM64.498 21.832c-0.278 0-0.557-0.039-0.835-0.117-0.278-0.067-0.54-0.206-0.785-0.417-0.234-0.223-0.417-0.54-0.551-0.952s-0.2-0.957-0.2-1.636l0.033-4.558h-1.235v-0.935c0.301-0.011 0.607-0.122 0.918-0.334s0.584-0.495 0.818-0.851c0.234-0.356 0.395-0.74 0.484-1.152h0.785v2.337h2.571v0.868l-2.571 0.033-0.033 4.458c0 0.423 0.033 0.796 0.1 1.119 0.078 0.312 0.2 0.557 0.367 0.735 0.178 0.167 0.417 0.25 0.718 0.25 0.256 0 0.518-0.078 0.785-0.234 0.278-0.156 0.54-0.412 0.785-0.768l0.568 0.501c-0.267 0.39-0.534 0.696-0.801 0.918s-0.523 0.384-0.768 0.484c-0.245 0.111-0.467 0.178-0.668 0.2-0.2 0.033-0.362 0.050-0.484 0.050zM72.888 21.832c-0.79 0-1.503-0.178-2.137-0.534s-1.141-0.851-1.52-1.486c-0.367-0.646-0.551-1.386-0.551-2.221 0-0.902 0.184-1.697 0.551-2.387 0.379-0.701 0.885-1.252 1.52-1.653s1.341-0.601 2.12-0.601c0.79 0 1.503 0.184 2.137 0.551 0.634 0.356 1.135 0.857 1.503 1.503 0.378 0.634 0.568 1.369 0.568 2.204 0 0.879-0.184 1.67-0.551 2.371s-0.868 1.252-1.503 1.653c-0.623 0.401-1.336 0.601-2.137 0.601zM73.005 20.998c0.534-0.011 0.952-0.178 1.252-0.501 0.312-0.323 0.534-0.735 0.668-1.235 0.134-0.512 0.2-1.041 0.2-1.586 0-0.479-0.045-0.946-0.134-1.402-0.078-0.467-0.206-0.89-0.384-1.269s-0.412-0.679-0.701-0.902c-0.289-0.234-0.64-0.345-1.052-0.334-0.523 0-0.952 0.161-1.286 0.484-0.323 0.323-0.562 0.74-0.718 1.252-0.145 0.501-0.217 1.035-0.217 1.603 0 0.657 0.083 1.28 0.25 1.87s0.423 1.074 0.768 1.453c0.356 0.378 0.807 0.568 1.352 0.568zM83.391 21.832c-0.79 0-1.503-0.178-2.137-0.534s-1.141-0.851-1.519-1.486c-0.367-0.646-0.551-1.386-0.551-2.221 0-0.902 0.184-1.697 0.551-2.387 0.378-0.701 0.885-1.252 1.519-1.653s1.341-0.601 2.12-0.601c0.79 0 1.503 0.184 2.137 0.551 0.634 0.356 1.135 0.857 1.503 1.503 0.378 0.634 0.568 1.369 0.568 2.204 0 0.879-0.184 1.67-0.551 2.371s-0.868 1.252-1.503 1.653c-0.623 0.401-1.336 0.601-2.137 0.601zM83.507 20.998c0.534-0.011 0.952-0.178 1.252-0.501 0.312-0.323 0.534-0.735 0.668-1.235 0.134-0.512 0.2-1.041 0.2-1.586 0-0.479-0.045-0.946-0.134-1.402-0.078-0.467-0.206-0.89-0.384-1.269s-0.412-0.679-0.701-0.902c-0.289-0.234-0.64-0.345-1.052-0.334-0.523 0-0.952 0.161-1.286 0.484-0.323 0.323-0.562 0.74-0.718 1.252-0.145 0.501-0.217 1.035-0.217 1.603 0 0.657 0.083 1.28 0.25 1.87s0.423 1.074 0.768 1.453c0.356 0.378 0.807 0.568 1.352 0.568zM91.072 21.832c-0.301 0-0.557-0.111-0.768-0.334-0.2-0.223-0.301-0.495-0.301-0.818 0-0.312 0.106-0.579 0.317-0.801 0.223-0.234 0.473-0.351 0.751-0.351 0.301 0 0.551 0.117 0.751 0.351 0.2 0.223 0.301 0.49 0.301 0.801 0 0.323-0.106 0.595-0.317 0.818-0.2 0.223-0.445 0.334-0.735 0.334z"></path>
<path fill="#fff" style="fill: var(--color2, #fff)" d="M95.133 11.464c0-0.189 0-0.378 0-0.568 0.011-0.2 0.028-0.412 0.050-0.634-0.2 0.011-0.406 0.022-0.618 0.033-0.2 0-0.39 0.006-0.568 0.017v-0.885c0.501 0 0.902-0.022 1.202-0.067 0.301-0.056 0.529-0.117 0.685-0.184 0.167-0.067 0.289-0.139 0.367-0.217h0.618v4.942c0.334-0.312 0.707-0.545 1.119-0.701 0.423-0.167 0.863-0.25 1.319-0.25 0.69 0 1.308 0.173 1.853 0.518 0.557 0.345 0.991 0.835 1.302 1.469 0.323 0.634 0.484 1.386 0.484 2.254 0 0.924-0.195 1.736-0.584 2.438-0.378 0.701-0.885 1.247-1.519 1.636-0.634 0.378-1.347 0.568-2.137 0.568-0.356 0-0.762-0.067-1.219-0.2-0.445-0.134-0.851-0.406-1.219-0.818l-0.434 0.751h-0.735l0.033-10.101zM96.869 18.977c0 0.523 0.083 0.929 0.25 1.219 0.167 0.278 0.378 0.479 0.634 0.601 0.267 0.111 0.545 0.167 0.835 0.167 0.523 0.011 0.963-0.134 1.319-0.434s0.623-0.707 0.801-1.219c0.189-0.523 0.284-1.113 0.284-1.77 0-0.668-0.083-1.269-0.25-1.803s-0.423-0.957-0.768-1.269c-0.345-0.323-0.779-0.479-1.302-0.467-0.345 0-0.679 0.078-1.002 0.234-0.312 0.156-0.579 0.367-0.801 0.634v4.107zM109.025 26.090c-0.979 0-1.77-0.111-2.371-0.334-0.59-0.211-1.018-0.49-1.286-0.835-0.256-0.334-0.384-0.69-0.384-1.069 0-0.301 0.067-0.579 0.2-0.835 0.145-0.256 0.334-0.484 0.568-0.685 0.234-0.189 0.495-0.339 0.785-0.451-0.39-0.122-0.685-0.295-0.885-0.518-0.2-0.234-0.301-0.518-0.301-0.851 0-0.356 0.139-0.707 0.417-1.052 0.289-0.345 0.701-0.579 1.235-0.701-0.501-0.223-0.902-0.545-1.202-0.968s-0.456-0.924-0.467-1.503c-0.011-0.668 0.156-1.252 0.501-1.753 0.356-0.501 0.807-0.89 1.352-1.169 0.557-0.278 1.135-0.417 1.736-0.417 0.345 0 0.701 0.050 1.069 0.15 0.367 0.089 0.701 0.234 1.002 0.434 0.122-0.323 0.284-0.618 0.484-0.885s0.434-0.479 0.701-0.634c0.278-0.156 0.568-0.234 0.868-0.234 0.323 0 0.568 0.083 0.735 0.25s0.25 0.39 0.25 0.668c0 0.089-0.028 0.2-0.083 0.334-0.045 0.122-0.128 0.228-0.25 0.317s-0.289 0.134-0.501 0.134c-0.178 0-0.339-0.056-0.484-0.167-0.134-0.122-0.217-0.267-0.25-0.434-0.234 0.045-0.429 0.184-0.584 0.417-0.145 0.223-0.239 0.451-0.284 0.685 0.289 0.256 0.512 0.562 0.668 0.918 0.167 0.345 0.25 0.718 0.25 1.119 0 0.634-0.173 1.197-0.518 1.686-0.334 0.49-0.774 0.874-1.319 1.152s-1.135 0.417-1.77 0.417c-0.189 0-0.367-0.011-0.534-0.033-0.167-0.033-0.351-0.050-0.551-0.050-0.356 0-0.651 0.083-0.885 0.25-0.223 0.167-0.306 0.367-0.25 0.601 0.056 0.245 0.289 0.406 0.701 0.484s1.007 0.134 1.786 0.167c0.857 0.033 1.592 0.139 2.204 0.317 0.623 0.167 1.102 0.429 1.436 0.785 0.345 0.356 0.518 0.84 0.518 1.453 0 0.456-0.128 0.863-0.384 1.219-0.245 0.356-0.579 0.651-1.002 0.885-0.412 0.245-0.874 0.429-1.386 0.551s-1.024 0.184-1.536 0.184zM109.175 25.272c0.902 0 1.597-0.167 2.087-0.501 0.501-0.334 0.751-0.712 0.751-1.135 0-0.356-0.122-0.634-0.367-0.835-0.245-0.189-0.59-0.328-1.035-0.417-0.434-0.078-0.946-0.122-1.536-0.134-0.289-0.022-0.584-0.039-0.885-0.050s-0.579-0.039-0.835-0.083c-0.256 0.178-0.456 0.395-0.601 0.651-0.134 0.256-0.206 0.523-0.217 0.801 0 0.512 0.239 0.924 0.718 1.235s1.119 0.467 1.92 0.467zM108.958 18.493c0.378 0 0.69-0.095 0.935-0.284 0.256-0.2 0.445-0.462 0.568-0.785 0.134-0.334 0.2-0.696 0.2-1.085 0-0.456-0.067-0.885-0.2-1.286s-0.328-0.723-0.584-0.968c-0.256-0.245-0.584-0.367-0.985-0.367-0.545 0-0.968 0.217-1.269 0.651s-0.451 0.957-0.451 1.569c0 0.49 0.067 0.929 0.2 1.319 0.145 0.378 0.351 0.679 0.618 0.902s0.59 0.334 0.968 0.334z"></path>
<path fill="#fff" style="fill: var(--color2, #fff)" d="M32.36 10.57l-0.258-0.155 0.412-0.67c0.103-0.155 0.052-0.361-0.103-0.412l-0.927-0.618c-0.155-0.103-0.361-0.052-0.412 0.103l-0.412 0.67-0.258-0.155-1.237-0.773-0.206-0.206-0.618-0.361c-0.051-0.258-0.309-0.618-0.773-0.979l0.206-0.309c0.155-0.258 0.103-0.567-0.155-0.721l-0.567-0.361c-0.258-0.155-0.567-0.103-0.721 0.155l-0.206 0.361c-0.464-0.206-0.876-0.309-1.134-0.258l-0.721-0.464-0.052-0.155-0.721-3.452c0.103-0.052 0.206-0.155 0.258-0.258s0.103-0.258 0.155-0.361l1.082-0.206c0.206-0.052 0.361-0.258 0.309-0.464s-0.258-0.361-0.464-0.309l-1.134 0.206c-0.052-0.103-0.155-0.206-0.258-0.258-0.464-0.309-1.082-0.155-1.391 0.309-0.052 0.103-0.103 0.258-0.155 0.361l-1.082 0.206c-0.103 0-0.206 0.103-0.258 0.206l-0.258-0.258-0.155 0.103 0.464 0.567 0.567 0.721-0.464 0.67-1.546-0.979c-0.258-0.155-0.567-0.103-0.721 0.155l-0.412 0.618c-0.155 0.258-0.103 0.567 0.155 0.721l0.258 0.155-3.916 6.080-1.34-0.928c-0.206-0.103-0.464-0.052-0.567 0.103l-0.361 0.567-1.237-0.824-0.515-0.309-0.155-0.051c-0.206-0.155-0.464-0.052-0.618 0.103l-0.206 0.258-1.134-0.721 0.309-0.464c0.051-0.103 0.051-0.258-0.052-0.309s-0.258-0.051-0.309 0.052l-0.309 0.464-0.052-0.052c-0.258-0.155-0.567-0.103-0.721 0.155l-0.464 0.721c-0.155 0.258-0.103 0.567 0.155 0.721l0.052 0.051-0.309 0.515c-0.052 0.103-0.052 0.258 0.052 0.309s0.258 0.052 0.309-0.052l0.309-0.464 1.134 0.721-0.206 0.258c-0.155 0.206-0.052 0.464 0.103 0.618l0.155 0.103 0.515 0.309 1.237 0.825-0.206 0.361c-1.7-0.928-2.267-0.309-2.422-0.103l-5.926 9.172c-0.361 0.618 0.103 1.597 1.649 2.783l-0.824 1.288c0.309 0.206 0.618 0.773 0.052 1.597-0.515 0.824-1.237 0.618-1.237 0.618l-1.391 3.607c0 0 3.092-3.195 3.555-3.916 0.309-0.464 0.979-1.494 1.391-2.216 1.7 0.928 3.092 1.288 3.452 0.67l5.926-9.121c0.309-0.464 0-1.34-0.876-2.216l0.67-0.979 0.515-0.825 1.134 0.773c-0.155 0.258 0 0.721 0.412 0.979s0.876 0.258 1.031 0l2.628 1.7c-0.155 0.258 0 0.721 0.412 0.979s0.876 0.258 1.031 0l2.473 1.597c-0.103 0.155-0.051 0.361 0.155 0.618l-0.155 0.206c-0.103 0.155-0.051 0.361 0.103 0.412l0.927 0.618c0.155 0.103 0.361 0.052 0.412-0.103l0.103-0.155c0.361 0.103 0.618 0.051 0.721-0.103 0.103 0.052 0.206 0.052 0.258-0.052l0.309-0.464c0.051-0.103 0.051-0.206-0.052-0.258l-0.464-0.309 1.855-2.834c0.103-0.155 0.051-0.361-0.103-0.412l-0.927-0.618c-0.155-0.103-0.361-0.052-0.412 0.103l-1.752 2.731-0.258-0.155 4.535-7.008 0.258 0.155c-0.052 0.155-0.052 0.309 0.103 0.412l0.927 0.618c0.155 0.103 0.309 0.052 0.412-0.051l0.258 0.155c0.309 0.206 0.67 0.103 0.876-0.206l0.721-1.082c0.155-0.309 0.103-0.67-0.206-0.876zM25.146 0.47c0.052 0.206-0.206 0.309-0.206 0.103s0-0.258-0.155-0.309c0.052 0 0.361 0 0.361 0.206zM24.013 0.573c0 0 0.052-0.052 0.103-0.052h0.103c0.052 0 0.052 0 0.103 0s0.052 0 0.103 0 0.103 0.052 0.103 0.052c0 0-0.155 0.052-0.258 0.052-0.206 0-0.361 0-0.361 0s0.051-0.052 0.103-0.052zM6.905 8.663l0.464-0.721c0.103-0.155 0.361-0.206 0.515-0.103-0.309-0.103-0.979 0.825-0.979 0.825zM0.979 29.945c-0.206 0.515-0.412 1.031-0.412 1.031s0-0.052 0-0.103c0-0.051 0.052-0.155 0.052-0.258 0.052-0.103 0.052-0.206 0.103-0.361 0-0.052 0.052-0.103 0.052-0.206 0-0.052 0.052-0.103 0.052-0.206 0.052-0.103 0.103-0.258 0.155-0.361s0.103-0.206 0.155-0.309c0.052-0.103 0.103-0.155 0.155-0.206s0.052-0.103 0.052-0.103c0.052 0.052-0.155 0.567-0.361 1.082zM3.246 27.008c0 0.103-0.052 0.206-0.103 0.309 0 0.052-0.052 0.103-0.052 0.155s-0.052 0.103-0.103 0.155l-0.103 0.103c-0.052 0.051-0.052 0.103-0.103 0.155 0 0.052-0.052 0.052-0.052 0.103-0.052 0.052-0.052 0.052-0.103 0.103s-0.155 0.155-0.258 0.206c-0.103 0.052-0.155 0.103-0.258 0.103 0 0.052-0.052 0.052-0.103 0.052s-0.052 0-0.103 0-0.103 0-0.155 0c-0.052 0-0.103 0-0.103 0h-0.052c0 0 0.052 0 0.155 0 0.052 0 0.103 0 0.155-0.052 0.052 0 0.103-0.051 0.206-0.103 0.052-0.052 0.155-0.103 0.206-0.155s0.155-0.103 0.206-0.206c0.052 0.051 0.052 0 0.103 0 0.052-0.052 0.052-0.103 0.103-0.103 0.052-0.052 0.052-0.103 0.103-0.155l0.103-0.103c0.052-0.052 0.052-0.103 0.103-0.155 0-0.051 0.052-0.103 0.052-0.155s0.052-0.103 0.052-0.155c0-0.052 0-0.103 0.052-0.155 0-0.103 0-0.206 0-0.258 0-0.103 0-0.155-0.052-0.258 0-0.051-0.052-0.155-0.052-0.206-0.052-0.051-0.052-0.103-0.103-0.155-0.052-0.103-0.103-0.103-0.103-0.103s0.052 0.052 0.103 0.103c0.052 0.052 0.052 0.103 0.103 0.155 0 0.052 0.052 0.052 0.052 0.103s0.052 0.052 0.052 0.103c0.052 0.103 0.052 0.155 0.052 0.258s0 0.206 0 0.309zM9.378 11.24l0.412-0.618 0.206 0.103-0.258 0.361 1.031 0.67-0.155 0.206-1.237-0.721zM9.688 12.94c0 0 0 0.051 0 0 0.051 0.051 0.051 0.051 0.051 0.051 0.052 0.052 0.103 0.103 0.206 0.155 0.052 0.051 0.103 0.051 0.155 0.103s0.103 0.103 0.155 0.103c0.103 0.103 0.206 0.155 0.361 0.258 0.103 0.103 0.206 0.155 0.309 0.258s0.206 0.155 0.309 0.258c0.103 0.051 0.155 0.155 0.206 0.155 0.052 0.051 0.052 0.051 0.052 0.051s-0.103-0.103-0.309-0.206c-0.206-0.103-0.412-0.309-0.67-0.464-0.103-0.103-0.206-0.206-0.309-0.258-0.103-0.103-0.206-0.155-0.258-0.258s-0.155-0.155-0.155-0.206c-0.103 0.051-0.155 0.051-0.103 0zM5.204 25.307c0 0-0.052-0.051-0.155-0.103-0.052-0.052-0.103-0.052-0.206-0.103-0.052-0.051-0.155-0.103-0.258-0.155s-0.206-0.103-0.309-0.206c-0.103-0.051-0.206-0.155-0.309-0.206-0.103-0.103-0.206-0.155-0.309-0.258s-0.206-0.206-0.309-0.258c-0.103-0.103-0.206-0.206-0.309-0.309s-0.206-0.206-0.258-0.309c-0.103-0.103-0.155-0.206-0.258-0.309s-0.155-0.206-0.206-0.258-0.206-0.309-0.309-0.412c-0.052-0.103-0.103-0.155-0.103-0.155s0 0 0.052 0.052c0 0 0.052 0.052 0.103 0.103s0.103 0.103 0.155 0.155c0.052 0.051 0.103 0.155 0.206 0.206 0.103 0 0.155 0.103 0.258 0.206s0.155 0.155 0.258 0.258c0.103 0.103 0.206 0.155 0.309 0.258s0.206 0.206 0.309 0.258c0.103 0.103 0.206 0.206 0.309 0.258 0.103 0.155 0.155 0.206 0.258 0.309s0.206 0.155 0.309 0.258c0.103 0.103 0.155 0.155 0.258 0.206s0.155 0.155 0.206 0.206c0.052 0.052 0.103 0.103 0.155 0.155 0.103 0.052 0.155 0.103 0.155 0.155zM4.431 23.71c-0.67-0.412-0.773-0.618-1.34-1.134s-0.206-0.825 0.258-0.464c0 0 0.464 0.618 1.494 1.185 1.031 0.618 0.309 0.876-0.412 0.412zM6.441 23.349c0 0-0.052-0.052-0.155-0.103-0.052-0.052-0.103-0.052-0.206-0.103-0.052-0.052-0.155-0.103-0.258-0.155s-0.206-0.103-0.309-0.206c-0.103-0.051-0.206-0.155-0.309-0.206-0.103-0.103-0.206-0.155-0.309-0.258s-0.206-0.155-0.309-0.258c-0.103-0.103-0.206-0.206-0.309-0.309s-0.206-0.206-0.309-0.309c-0.103-0.103-0.155-0.206-0.258-0.258-0.103-0.103-0.155-0.206-0.206-0.258-0.155-0.155-0.258-0.309-0.309-0.412s-0.103-0.155-0.103-0.155 0 0 0.052 0.052c0 0 0.052 0.052 0.103 0.103s0.103 0.103 0.155 0.155c0.052 0.052 0.103 0.103 0.206 0.206 0.052 0.052 0.155 0.155 0.258 0.258s0.155 0.155 0.258 0.258c0.103 0.103 0.206 0.155 0.309 0.258s0.206 0.206 0.309 0.258c0.103 0.103 0.206 0.206 0.309 0.258 0.103 0.103 0.206 0.155 0.309 0.258s0.206 0.155 0.309 0.258c0.103 0.052 0.155 0.155 0.258 0.206s0.155 0.155 0.206 0.206c0.052 0.052 0.103 0.103 0.155 0.155 0.155 0 0.206 0.052 0.155 0.103zM5.668 21.855c-0.721-0.464-0.773-0.618-1.34-1.134s-0.206-0.825 0.258-0.464c0 0 0.464 0.618 1.494 1.185 0.979 0.618 0.309 0.825-0.412 0.412zM7.729 21.391c0 0-0.052-0.052-0.155-0.103-0.052-0.051-0.103-0.051-0.206-0.103-0.052-0.052-0.155-0.103-0.258-0.155s-0.206-0.103-0.309-0.206c-0.103-0.052-0.206-0.155-0.309-0.206-0.103-0.103-0.206-0.155-0.309-0.258s-0.206-0.155-0.309-0.258c-0.103-0.103-0.206-0.206-0.309-0.258-0.103-0.103-0.206-0.206-0.309-0.258-0.103-0.103-0.206-0.206-0.258-0.258-0.103-0.103-0.155-0.155-0.206-0.258-0.155-0.155-0.258-0.309-0.309-0.412s-0.103-0.155-0.103-0.155 0 0 0.052 0.051c0 0 0.052 0.052 0.103 0.103 0.052-0.052 0.103 0 0.155 0.052s0.155 0.103 0.206 0.206c0.052 0.051 0.155 0.155 0.258 0.206 0.103 0.103 0.206 0.155 0.258 0.258 0.103 0.103 0.206 0.155 0.309 0.258s0.206 0.155 0.309 0.258c0.103 0.103 0.206 0.155 0.309 0.258s0.206 0.155 0.309 0.258c0.103 0.103 0.206 0.155 0.309 0.258 0.103 0.052 0.155 0.155 0.258 0.206s0.155 0.155 0.206 0.206c0.052 0.052 0.103 0.103 0.155 0.155 0.103 0.103 0.155 0.155 0.155 0.155zM6.905 19.948c-0.721-0.464-0.773-0.618-1.34-1.134s-0.206-0.825 0.258-0.464c0 0 0.464 0.618 1.494 1.185 0.979 0.618 0.309 0.825-0.412 0.412zM8.966 19.433c0 0-0.051-0.052-0.155-0.103-0.052-0.051-0.103-0.051-0.206-0.103-0.052-0.052-0.155-0.103-0.258-0.155s-0.206-0.103-0.258-0.206c-0.103-0.052-0.206-0.155-0.309-0.206-0.103-0.103-0.206-0.155-0.309-0.258s-0.206-0.155-0.309-0.258c-0.103-0.103-0.206-0.206-0.309-0.258-0.103-0.103-0.206-0.206-0.309-0.258-0.103-0.103-0.206-0.206-0.258-0.258-0.103-0.103-0.155-0.155-0.206-0.258-0.155-0.155-0.258-0.309-0.309-0.412s-0.103-0.155-0.103-0.155 0 0 0.052 0.052c0 0 0.052 0.051 0.103 0.103s0.103 0.103 0.155 0.155c0.052 0.052 0.155 0.103 0.206 0.206 0.103 0.052 0.155 0.155 0.258 0.206s0.206 0.155 0.258 0.258c0.103 0.103 0.206 0.155 0.309 0.258s0.206 0.155 0.309 0.258c0.103 0.103 0.206 0.155 0.309 0.258s0.206 0.155 0.309 0.258c0.103 0.103 0.206 0.155 0.309 0.258 0.103 0.052 0.155 0.155 0.258 0.206s0.155 0.155 0.206 0.206c0.051 0.052 0.103 0.103 0.155 0.155 0.103 0 0.155 0.052 0.103 0.052zM8.142 18.041c-0.721-0.464-0.773-0.618-1.34-1.134s-0.206-0.825 0.258-0.464c0 0 0.464 0.618 1.494 1.185 0.979 0.618 0.309 0.876-0.412 0.412zM10.254 17.526c0 0-0.052-0.052-0.155-0.103-0.051-0.051-0.103-0.051-0.206-0.103-0.052-0.052-0.155-0.103-0.258-0.155s-0.206-0.103-0.258-0.206c-0.103-0.052-0.206-0.155-0.309-0.206s-0.206-0.155-0.309-0.258c-0.103-0.103-0.206-0.155-0.309-0.258s-0.206-0.155-0.309-0.258c-0.103-0.103-0.206-0.155-0.309-0.258s-0.206-0.155-0.258-0.258c-0.103-0.103-0.155-0.155-0.258-0.258-0.155-0.155-0.258-0.309-0.361-0.361-0.052-0.103-0.103-0.155-0.103-0.155s0 0 0.052 0.051c0 0 0.052 0.052 0.103 0.103s0.103 0.103 0.155 0.155c0.051 0.052 0.155 0.103 0.206 0.155 0.103 0.052 0.155 0.155 0.258 0.206s0.206 0.155 0.309 0.258c0.103 0.103 0.206 0.155 0.309 0.258s0.206 0.155 0.309 0.258c0.103 0.103 0.206 0.155 0.309 0.258s0.206 0.155 0.309 0.258c0.103 0.052 0.206 0.155 0.309 0.258 0.103 0.052 0.206 0.155 0.258 0.206 0.103 0.052 0.155 0.155 0.206 0.206s0.103 0.103 0.155 0.155c0.103-0.052 0.155 0 0.155 0.052zM9.43 16.032c-0.721-0.464-0.773-0.618-1.34-1.134s-0.206-0.825 0.258-0.464c0 0 0.464 0.618 1.494 1.185 0.979 0.618 0.309 0.876-0.412 0.412zM11.491 15.568c0 0-0.052-0.052-0.155-0.103s-0.258-0.155-0.412-0.258c-0.155-0.103-0.361-0.258-0.618-0.412-0.206-0.155-0.464-0.309-0.67-0.464s-0.412-0.361-0.618-0.515-0.361-0.361-0.515-0.464c-0.309-0.309-0.464-0.515-0.464-0.515s0.052 0.052 0.155 0.103c0.052 0.051 0.103 0.103 0.155 0.155s0.155 0.103 0.206 0.155c0.309 0.258 0.773 0.567 1.185 0.928 0.103 0.103 0.206 0.155 0.309 0.258s0.206 0.155 0.309 0.258c0.103 0.051 0.206 0.155 0.309 0.206s0.206 0.155 0.258 0.206c0.103 0.052 0.155 0.103 0.206 0.206 0.052 0.052 0.103 0.103 0.155 0.155 0.155 0.051 0.206 0.103 0.206 0.103zM11.8 10.209l-1.031-0.67-0.258 0.361-0.206-0.103 0.412-0.618 1.237 0.825-0.155 0.206zM26.692 15.826c0.052-0.103 0.155-0.103 0.258-0.052l0.876 0.567c0 0-0.67-0.412-1.134-0.515zM26.538 5.674c0.052-0.103 0.309-0.103 0.361-0.052l0.825 0.515c0 0-0.67-0.412-1.185-0.464zM22.415 0.779c0-0.052 0-0.052 0.052-0.052 0 0 0 0-0.052 0.052 0 0.052 0 0.103 0 0.103 0 0.052 0 0.103 0 0.155 0.052 0.103 0.103 0.206 0.206 0.258 0 0 0 0 0.052 0h0.103c0.052 0 0.103 0 0.155 0s0.103-0.052 0.155-0.052c0.103 0 0.155-0.052 0.155-0.103 0.052-0.052 0.052-0.103 0.052-0.155s0-0.103 0-0.155c0-0.052 0-0.103-0.052-0.155 0-0.052-0.052-0.052-0.052-0.103v0c0.052 0.052 0.103 0.103 0.155 0.206s0 0.258-0.051 0.361c-0.052 0.103-0.206 0.206-0.361 0.258s-0.309 0-0.412-0.103c-0.103-0.103-0.155-0.206-0.206-0.309 0.052-0.052 0.103-0.155 0.103-0.206zM22.776 2.377l0.412 1.752-0.876-0.979 0.464-0.773zM21.694 1.655l-0.309 0.464-0.309-0.361 0.618-0.103zM20.406 1.243c0 0 0.052 0.052 0.103 0.103 0.052 0.103 0.206 0.206 0.309 0.361s0.258 0.309 0.412 0.515c0.155 0.206 0.309 0.361 0.464 0.567s0.309 0.412 0.464 0.567c0.155 0.206 0.258 0.361 0.412 0.515 0.103 0.155 0.206 0.258 0.258 0.361s0.103 0.155 0.103 0.155l-2.525-3.143zM22.724 4.335l-0.876-0.567 0.206-0.309 0.67 0.876zM19.53 2.428c0 0 0.103 0.052 0.309 0.206 0.206 0.103 0.515 0.309 0.876 0.515s0.773 0.464 1.185 0.721c0.412 0.258 0.927 0.567 1.391 0.876s0.927 0.618 1.34 0.876c0.412 0.309 0.824 0.567 1.185 0.773 0.361 0.258 0.618 0.412 0.824 0.567s0.309 0.206 0.309 0.206c0 0-1.855-1.185-3.71-2.37-1.907-1.134-3.71-2.319-3.71-2.37zM20.354 14.228l0.773 0.515-0.155 0.258-2.628-1.7 0.155-0.258 0.721 0.464c0.258 0.155 0.618 0.103 0.773-0.155l3.504-5.359c0.155-0.258 0.103-0.618-0.155-0.773l-0.721-0.464 0.052-0.052 0.103-0.155 2.628 1.7-0.155 0.103c0 0.051-0.052 0.051-0.052 0.103l-0.825-0.515c-0.258-0.155-0.618-0.103-0.773 0.155l-3.504 5.359c-0.103 0.258 0 0.618 0.258 0.773zM20.766 6.19c0.206 0.155 0.206 0.103 0.618 0.412 0.773 0.515-2.731 4.535-3.092 5.101s-0.927-0.052-1.185-0.206c-0.258-0.155 0.258-0.773 0.567-1.237s2.319-4.586 3.092-4.071zM19.787 5.571l0.052-0.052c0.103-0.155 0.258-0.155 0.412-0.103l2.113 1.34c-0.052 0-1.752-1.031-2.576-1.185zM18.138 3.046l0.515-0.773c0.052-0.155 0.258-0.206 0.412-0.103-0.309 0.052-0.927 0.876-0.927 0.876zM15.819 10.621l-0.67-0.412 3.916-6.080 2.164 1.391-0.103 0.206v0.052l-0.721-0.464c-0.258-0.155-0.618-0.103-0.773 0.155l-3.504 5.359c-0.155 0.258-0.103 0.618 0.155 0.773l0.721 0.464-0.155 0.258-1.134-0.773 0.258-0.412c0.103-0.155 0.052-0.412-0.155-0.515zM23.085 16.702c-0.206-0.155-0.515-0.309-0.876-0.515s-0.773-0.464-1.237-0.773c-0.464-0.309-0.927-0.618-1.391-0.876-0.464-0.309-0.927-0.618-1.391-0.928s-0.876-0.567-1.237-0.824c-0.361-0.258-0.67-0.464-0.876-0.567-0.206-0.155-0.309-0.206-0.309-0.206s0.103 0.051 0.309 0.206c0.206 0.155 0.515 0.309 0.876 0.567 0.361 0.206 0.773 0.464 1.237 0.773s0.927 0.618 1.391 0.876c0.464 0.309 0.927 0.618 1.391 0.928s0.876 0.567 1.237 0.824c0.412 0.155 0.67 0.361 0.876 0.515 0.206 0.103 0.309 0.206 0.309 0.206s-0.103-0.052-0.309-0.206zM23.549 16.702l-1.134-0.721 0.155-0.258 0.67 0.412c0.258 0.155 0.618 0.103 0.773-0.155l-0.464 0.721zM22.312 14.228c-0.361 0.567-0.927-0.052-1.185-0.206s0.258-0.773 0.567-1.237c0.309-0.464 2.319-4.586 3.092-4.071 0.206 0.155 0.206 0.103 0.618 0.412 0.721 0.515-2.731 4.586-3.092 5.101zM23.858 8.251l0.052-0.052c0.103-0.155 0.258-0.155 0.412-0.103l2.113 1.34c0 0-1.7-1.031-2.576-1.185zM27.517 10.57c0.155-0.258 0.103-0.618-0.155-0.773l-0.67-0.412 0.052-0.052 0.103-0.155 1.134 0.721-0.464 0.67zM31.227 8.818c0.052-0.103 0.155-0.103 0.258-0.052l0.876 0.567c0 0-0.67-0.412-1.134-0.515z"></path>
</symbol>
<symbol id="icon-mashin" viewBox="0 0 32 32">
<path d="M27.89 3.064c0.282 0 0.511-0.229 0.511-0.511v-2.043c0-0.282-0.229-0.511-0.511-0.511h-16.069c-0.282 0-0.511 0.229-0.511 0.511v7.66h-2.962c-0.282 0-0.511 0.229-0.511 0.511v0.511h-1.021v-0.511c0-0.282-0.229-0.511-0.511-0.511h-1.175c-0.845 0-1.532 0.687-1.532 1.532s0.687 1.532 1.532 1.532h1.175c0.282 0 0.511-0.229 0.511-0.511v-0.511h1.021v0.511c0 0.282 0.229 0.511 0.511 0.511h1.94v1.066c-1.39 0.243-2.451 1.458-2.451 2.917v7.967c0 1.459 1.061 2.674 2.451 2.917v2.054c0 0.599 0.445 1.095 1.021 1.178v2.157c0 0.282 0.229 0.511 0.511 0.511s0.511-0.229 0.511-0.511v-2.157c0.576-0.083 1.021-0.579 1.021-1.178v-2.054c1.39-0.243 2.451-1.458 2.451-2.917v-7.968c0-1.459-1.061-2.674-2.451-2.917v-1.066h14.537c0.282 0 0.511-0.229 0.511-0.511v-2.043c0-0.282-0.229-0.511-0.511-0.511h-1.532v-5.106h1.532zM4.621 9.702c0-0.282 0.229-0.511 0.511-0.511h0.664v1.021h-0.664c-0.282 0-0.511-0.229-0.511-0.511zM27.379 10.213h-18.52v-1.021h18.52v1.021h-0zM14.783 23.184c0 1.070-0.87 1.94-1.94 1.94h-2.043c-1.070 0-1.94-0.87-1.94-1.94v-7.968c0-1.070 0.87-1.94 1.94-1.94h2.043c1.070 0 1.94 0.87 1.94 1.94v7.968zM12.161 28.325h-0.681c-0.092 0-0.17-0.078-0.17-0.17v-2.009h1.021v2.009c0 0.092-0.078 0.17-0.17 0.17zM12.332 12.255h-1.021v-1.021h1.021v1.021zM12.332 1.021h15.048v1.021h-15.048v-1.021zM18.323 8.17v-3.574c0-0.282-0.228-0.51-0.51-0.511s-0.511 0.229-0.511 0.511v3.574h-2.928v-5.106h4.971v5.106h-1.021zM12.332 3.064h1.021v5.106h-1.021v-5.106zM25.337 8.17h-1.021v-3.574c0-0.282-0.229-0.511-0.511-0.511s-0.511 0.229-0.511 0.511v3.574h-2.928v-5.106h4.971v5.106z"></path>
<path d="M10.391 23.695h2.86c0.282 0 0.511-0.229 0.511-0.511s-0.229-0.511-0.511-0.511h-2.86c-0.282 0-0.511 0.229-0.511 0.511s0.229 0.511 0.511 0.511z"></path>
<path d="M13.251 20.682h-2.86c-0.282 0-0.511 0.229-0.511 0.511s0.229 0.511 0.511 0.511h2.86c0.282 0 0.511-0.229 0.511-0.511s-0.229-0.511-0.511-0.511z"></path>
<path d="M13.251 18.69h-2.86c-0.282 0-0.511 0.229-0.511 0.511s0.229 0.511 0.511 0.511h2.86c0.282 0 0.511-0.229 0.511-0.511s-0.229-0.511-0.511-0.511z"></path>
<path d="M13.251 16.698h-2.86c-0.282 0-0.511 0.229-0.511 0.511s0.229 0.511 0.511 0.511h2.86c0.282 0 0.511-0.229 0.511-0.511s-0.229-0.511-0.511-0.511z"></path>
<path d="M10.391 15.728h2.86c0.282 0 0.511-0.229 0.511-0.511s-0.229-0.511-0.511-0.511h-2.86c-0.282 0-0.511 0.229-0.511 0.511s0.229 0.511 0.511 0.511z"></path>
</symbol>
<symbol id="icon-pin_light" viewBox="0 0 32 32">
<path fill="none" stroke="#fff" style="stroke: var(--color2, #fff)" stroke-linejoin="miter" stroke-linecap="butt" stroke-miterlimit="4" stroke-width="1.3333" d="M26 16c0 6.691-7.318 11.204-9.433 12.369-0.357 0.197-0.776 0.197-1.133 0-2.116-1.165-9.433-5.678-9.433-12.369 0-6 4.845-10 10-10 5.333 0 10 4 10 10z"></path>
<path fill="none" stroke="#fff" style="stroke: var(--color2, #fff)" stroke-linejoin="miter" stroke-linecap="butt" stroke-miterlimit="4" stroke-width="1.3333" d="M20.667 16c0 2.577-2.089 4.667-4.667 4.667s-4.667-2.089-4.667-4.667c0-2.577 2.089-4.667 4.667-4.667s4.667 2.089 4.667 4.667z"></path>
</symbol>
<symbol id="icon-pinterest" viewBox="0 0 32 32">
<path fill="#f1f2f2" style="fill: var(--color1, #f1f2f2)" d="M16.776 21.071c-1.165-0.090-1.655-0.668-2.569-1.223-0.502 2.636-1.116 5.162-2.935 6.482-0.562-3.984 0.824-6.976 1.468-10.152-1.097-1.847 0.132-5.564 2.446-4.648 2.848 1.126-2.466 6.867 1.101 7.584 3.724 0.749 5.244-6.462 2.935-8.807-3.337-3.386-9.713-0.077-8.929 4.77 0.191 1.185 1.416 1.545 0.489 3.18-2.136-0.473-2.773-2.157-2.691-4.403 0.132-3.676 3.303-6.249 6.483-6.606 4.022-0.45 7.797 1.477 8.318 5.26 0.586 4.27-1.816 8.894-6.116 8.562z"></path>
</symbol>
<symbol id="icon-rose" viewBox="0 0 32 32">
<path d="M25.102 14.861c-0.238-0.154-0.483-0.297-0.734-0.428 0.135-0.606 0.205-1.235 0.205-1.88l-0-8.047c-0-0.451-0.369-0.549-0.511-0.549-0.054 0-0.108 0.009-0.159 0.025-0.509 0.167-1.008 0.365-1.492 0.592l-1.254-2.263c-0.001-0.001-0.001-0.003-0.002-0.004-0.012-0.021-0.023-0.038-0.034-0.053-0.003-0.004-0.006-0.009-0.010-0.013-0.011-0.014-0.022-0.027-0.034-0.039-0.002-0.002-0.004-0.005-0.007-0.007-0.014-0.014-0.029-0.028-0.045-0.040-0.004-0.003-0.008-0.006-0.012-0.009-0.013-0.010-0.026-0.019-0.040-0.027-0.004-0.003-0.008-0.005-0.013-0.008-0.035-0.020-0.073-0.037-0.113-0.048-0.005-0.001-0.009-0.002-0.014-0.004-0.016-0.004-0.032-0.007-0.048-0.010-0.005-0.001-0.011-0.002-0.016-0.002-0.021-0.003-0.041-0.004-0.063-0.004h-1.291l-0.986-1.779c-0.090-0.162-0.261-0.263-0.447-0.263h-3.969c-0.186 0-0.357 0.101-0.447 0.263l-0.986 1.779h-1.291c-0.021 0-0.042 0.002-0.063 0.004-0.005 0.001-0.011 0.002-0.016 0.002-0.016 0.003-0.032 0.006-0.048 0.010-0.005 0.001-0.009 0.002-0.014 0.004-0.040 0.011-0.078 0.028-0.113 0.048-0.004 0.002-0.008 0.005-0.013 0.008-0.014 0.009-0.027 0.018-0.040 0.027-0.004 0.003-0.008 0.006-0.012 0.009-0.016 0.013-0.031 0.026-0.045 0.040-0.002 0.002-0.004 0.005-0.007 0.007-0.012 0.013-0.023 0.026-0.034 0.039-0.003 0.004-0.007 0.009-0.010 0.013-0.011 0.016-0.022 0.032-0.031 0.049-0.004 0.006-0.004 0.007-0.005 0.008l-1.254 2.263c-0.483-0.227-0.981-0.425-1.492-0.593-0.155-0.051-0.326-0.024-0.459 0.072s-0.211 0.25-0.211 0.413v8.085c0 0.645 0.070 1.274 0.205 1.88-0.25 0.132-0.496 0.275-0.734 0.429-2.668 1.728-4.28 4.715-4.313 7.99-0.002 0.205 0.119 0.391 0.307 0.473 1.274 0.555 2.616 0.83 3.944 0.83 1.594 0 3.167-0.397 4.572-1.178-0.033 0.322-0.051 0.647-0.051 0.976 0 3.179 1.63 6.156 4.361 7.964 0.085 0.057 0.184 0.085 0.282 0.085s0.197-0.028 0.282-0.085c2.73-1.808 4.36-4.785 4.36-7.964 0-0.329-0.018-0.654-0.051-0.976 1.405 0.781 2.978 1.178 4.572 1.178 1.328 0 2.67-0.274 3.944-0.83 0.188-0.082 0.309-0.268 0.307-0.473-0.033-3.274-1.645-6.261-4.313-7.989zM28.383 22.519c-2.606 1.021-5.488 0.759-7.774-0.722-0.088-0.057-0.174-0.116-0.26-0.176-0.137-0.532-0.322-1.053-0.556-1.56 0.696-0.326 1.347-0.743 1.935-1.245l4.701 3.045c0.086 0.056 0.182 0.082 0.277 0.082 0.167 0 0.331-0.082 0.429-0.233 0.153-0.237 0.086-0.553-0.151-0.706l-4.503-2.918c0.705-0.776 1.242-1.673 1.596-2.651 0.16 0.089 0.317 0.184 0.47 0.283 2.286 1.481 3.703 4.004 3.837 6.8zM16 30.869c-2.274-1.632-3.621-4.193-3.621-6.918 0-0.642 0.072-1.271 0.215-1.884 0.006-0.020 0.011-0.040 0.014-0.061 0.129-0.537 0.313-1.061 0.55-1.569 0.745 0.247 1.528 0.396 2.331 0.44v7.992c0 0.282 0.229 0.511 0.51 0.511s0.511-0.229 0.511-0.511v-7.992c0.803-0.045 1.587-0.193 2.331-0.44 0.238 0.508 0.421 1.032 0.55 1.569 0.003 0.020 0.008 0.041 0.014 0.061 0.142 0.612 0.215 1.241 0.215 1.883 0 2.724-1.347 5.286-3.621 6.918zM3.617 22.519c0.133-2.796 1.55-5.319 3.837-6.8 0.153-0.099 0.31-0.194 0.47-0.283 0.354 0.978 0.892 1.874 1.596 2.651l-4.503 2.917c-0.237 0.153-0.304 0.469-0.151 0.706 0.098 0.151 0.262 0.233 0.429 0.233 0.095 0 0.191-0.027 0.277-0.082l4.701-3.045c0.588 0.502 1.239 0.919 1.935 1.245-0.233 0.507-0.418 1.027-0.556 1.56-0.086 0.060-0.172 0.12-0.26 0.176-2.287 1.481-5.169 1.743-7.775 0.722zM17.684 1.021l0.566 1.021h-4.5l0.566-1.021h3.368zM18.354 4.397c-0.839 0-1.549-0.564-1.771-1.333h2.532c0.004 0 1.010 0 1.010 0-0.222 0.769-0.932 1.333-1.771 1.333zM12.878 3.064c0.002 0 2.539 0 2.539 0-0.222 0.769-0.932 1.333-1.771 1.333s-1.549-0.564-1.771-1.333h1.002zM13.646 5.418c0.974 0 1.836-0.489 2.354-1.235 0.518 0.746 1.38 1.235 2.354 1.235 1.089 0 2.038-0.611 2.522-1.508l0.629 1.134c-1.055 0.598-2.025 1.338-2.872 2.199-1.096 1.114-1.992 2.432-2.633 3.863-0.228-0.511-0.489-1.009-0.783-1.491-1.165-1.909-2.796-3.479-4.722-4.572l0.628-1.133c0.484 0.897 1.433 1.508 2.522 1.508zM9.551 5.692c0.002 0.001 0.003 0.002 0.005 0.002 2.845 1.457 4.945 3.944 5.935 6.873 0.007 0.077 0.032 0.151 0.071 0.217 0.544 1.716 0.709 3.575 0.424 5.462-0.042 0.275 0.145 0.532 0.418 0.579 0.004 0.001 0.007 0.002 0.011 0.002 0.279 0.042 0.539-0.15 0.581-0.429 0.298-1.975 0.135-3.985-0.458-5.874 1.152-3.346 3.737-6.036 7.015-7.33 0 1.236 0 3.952 0 7.359 0 4.518-3.733 7.243-7.396 7.318-0.052 0.001-0.104 0.002-0.156 0.002-3.712 0-7.552-2.738-7.552-7.32v-7.359c0.379 0.149 0.747 0.316 1.103 0.498z"></path>
</symbol>
<symbol id="icon-time_light" viewBox="0 0 32 32">
<path fill="none" stroke="#fff" style="stroke: var(--color2, #fff)" stroke-linejoin="miter" stroke-linecap="butt" stroke-miterlimit="4" stroke-width="1.3333" d="M27.333 16c0 6.259-5.074 11.333-11.333 11.333s-11.333-5.074-11.333-11.333c0-6.259 5.074-11.333 11.333-11.333s11.333 5.074 11.333 11.333z"></path>
<path fill="none" stroke="#fff" style="stroke: var(--color2, #fff)" stroke-linejoin="miter" stroke-linecap="round" stroke-miterlimit="4" stroke-width="1.3333" d="M22 16h-5.667c-0.184 0-0.333-0.149-0.333-0.333v-4.333"></path>
</symbol>
<symbol id="icon-zoom-in" viewBox="0 0 32 32">
<path fill="#fff" style="fill: var(--color2, #fff)" d="M17.51 12.083h-3.625v-3.625c0-0.334-0.271-0.604-0.604-0.604s-0.604 0.271-0.604 0.604v3.625h-3.625c-0.334 0-0.604 0.271-0.604 0.604s0.271 0.604 0.604 0.604h3.625v3.625c0 0.334 0.271 0.604 0.604 0.604s0.604-0.271 0.604-0.604v-3.625h3.625c0.334 0 0.604-0.271 0.604-0.604s-0.271-0.604-0.604-0.604z"></path>
<path fill="#fff" style="fill: var(--color2, #fff)" d="M31.238 30.977l-8.977-9.336c2.29-2.296 3.708-5.462 3.708-8.954 0-6.996-5.691-12.687-12.687-12.687s-12.687 5.691-12.687 12.687c0 6.996 5.691 12.687 12.687 12.687 3.071 0 5.889-1.098 8.086-2.919l8.999 9.359c0.118 0.124 0.277 0.186 0.436 0.186 0.151 0 0.301-0.056 0.419-0.169 0.241-0.231 0.248-0.614 0.017-0.854zM1.802 12.687c0-6.33 5.149-11.479 11.479-11.479s11.479 5.149 11.479 11.479c0 6.33-5.149 11.479-11.479 11.479s-11.479-5.149-11.479-11.479z"></path>
</symbol>
<symbol id="icon-menu" viewBox="0 0 32 32">
<path fill="#f83b4c" style="fill: var(--color1, #f83b4c)" d="M2.952 7h26.096c0.526 0 0.952 0.426 0.952 0.952v0.096c0 0.526-0.426 0.952-0.952 0.952h-26.096c-0.526 0-0.952-0.426-0.952-0.952v-0.096c0-0.526 0.426-0.952 0.952-0.952z"></path>
<path fill="#f83b4c" style="fill: var(--color1, #f83b4c)" d="M2.952 15h26.096c0.526 0 0.952 0.426 0.952 0.952v0.096c0 0.526-0.426 0.952-0.952 0.952h-26.096c-0.526 0-0.952-0.426-0.952-0.952v-0.096c0-0.526 0.426-0.952 0.952-0.952z"></path>
<path fill="#f83b4c" style="fill: var(--color1, #f83b4c)" d="M2.952 23h26.096c0.526 0 0.952 0.426 0.952 0.952v0.096c0 0.526-0.426 0.952-0.952 0.952h-26.096c-0.526 0-0.952-0.426-0.952-0.952v-0.096c0-0.526 0.426-0.952 0.952-0.952z"></path>
</symbol>
<symbol id="icon-close_40px" viewBox="0 0 32 32">
<path d="M23.733 10.304l-1.504-1.504-5.963 5.963-5.963-5.963-1.504 1.504 5.963 5.963-5.963 5.963 1.504 1.504 5.963-5.963 5.963 5.963 1.504-1.504-5.963-5.963 5.963-5.963z"></path>
</symbol>

</defs>
</svg>
